<svg width="76" height="54" viewBox="0 0 76 54" fill="none" xmlns="http://www.w3.org/2000/svg">
<g clip-path="url(#clip0_396_543)">
<path d="M29.5884 44.9922C28.479 44.9922 27.7391 46.4716 27.7391 47.5812H27.3694C27.3694 46.4716 26.2598 44.9922 25.5201 44.9922C23.3009 44.9922 22.1913 47.9511 19.2324 48.6908C22.9311 50.91 22.9307 53.499 25.5198 53.499C26.1116 53.499 26.9995 53.1292 27.3692 52.0196H27.7391C28.109 53.1292 28.9966 53.499 29.5884 53.499C32.1775 53.499 32.5475 50.5401 36.2461 48.6908C32.9174 47.5812 31.4379 44.9922 29.5884 44.9922Z" fill="#070707"/>
<path d="M50.6711 -0.5C50.7893 -0.35816 50.9044 -0.190286 51.0149 0.00114244C53.2748 3.55835 56.7708 14.0072 53.63 22.8014C51.7806 27.9795 48.4519 32.7877 40.6848 33.1575C36.0006 33.3806 31.0683 29.8288 29.5889 27.9795C30.3286 25.7603 31.7616 22.7301 35.1368 20.5822C39.2053 17.9932 42.9039 20.2123 47.7122 15.774C53.2517 10.6605 52.6335 2.80474 51.0149 0.00114244C50.8965 -0.185233 50.7815 -0.35269 50.6711 -0.5Z" fill="#070707"/>
<path d="M4.2098 -0.5C4.0916 -0.35816 3.97642 -0.190286 3.86591 0.00114244C1.60607 3.55835 -1.88989 14.0072 1.2509 22.8014C3.10021 27.9795 6.42898 32.7877 14.1961 33.1575C18.8803 33.3806 23.8125 29.8288 25.292 27.9795C24.5523 25.7603 23.1193 22.7301 19.744 20.5822C15.6756 17.9932 11.9769 20.2123 7.1687 15.774C1.62914 10.6605 2.24735 2.80474 3.86591 0.00114244C3.98431 -0.185233 4.09932 -0.35269 4.2098 -0.5Z" fill="#070707"/>
</g>
<defs>
<clipPath id="clip0_396_543">
<rect width="76" height="54" fill="white"/>
</clipPath>
</defs>
</svg>
