<svg width="76" height="54" viewBox="0 0 76 54" fill="none" xmlns="http://www.w3.org/2000/svg">
<g clip-path="url(#clip0_396_526)">
<path d="M19 44.5C19 49.7457 14.7778 54 9.50001 54C4.22218 54 0 49.7457 0 44.5C0 39.2543 4.22218 35 9.50001 35C14.7778 35 19 39.2543 19 44.5Z" fill="#070707"/>
<path d="M46 38.5C46 44.85 41.7778 50 36.5 50C31.2222 50 27 44.85 27 38.5C27 32.15 31.2222 27 36.5 27C41.7778 27 46 32.15 46 38.5Z" fill="#070707"/>
<path d="M76 19.5C76 30.2674 71.7778 39 66.5 39C61.2222 39 57 30.2674 57 19.5C57 8.73259 61.2222 0 66.5 0C71.7778 0 76 8.73259 76 19.5Z" fill="#070707"/>
</g>
<defs>
<clipPath id="clip0_396_526">
<rect width="76" height="54" fill="white"/>
</clipPath>
</defs>
</svg>
