<svg width="76" height="54" viewBox="0 0 76 54" fill="none" xmlns="http://www.w3.org/2000/svg">
<mask id="mask0_213_1098" style="mask-type:luminance" maskUnits="userSpaceOnUse" x="0" y="0" width="54" height="54">
<path d="M54 0H0V54H54V0Z" fill="white"/>
</mask>
<g mask="url(#mask0_213_1098)">
<path d="M12.6686 4.74609H13.0898C16.9783 4.74609 20.2188 6.49114 22.8435 10.0137C24.2044 12.082 24.885 14.2148 24.885 16.3801V17.0587C24.885 20.9367 23.0055 24.233 19.2466 26.9153C17.2052 28.0787 15.2285 28.6604 13.3491 28.6604H12.3445C9.39574 28.6604 6.57665 27.303 3.88705 24.6208C1.94285 22.1647 0.970703 19.6117 0.970703 16.9295V16.6062C0.970703 12.7929 2.65573 9.59352 5.99336 7.00819C8.09957 5.48938 10.3355 4.74609 12.6686 4.74609ZM4.79436 16.477V16.8971C4.79436 19.741 6.18779 22.0355 8.94213 23.7806C10.2059 24.4592 11.4048 24.7824 12.5389 24.7824H13.2195C15.6821 24.7824 17.756 23.6513 19.5059 21.3892C20.5104 19.9349 20.9965 18.4483 20.9965 16.9295V16.3801C20.9965 13.3746 19.4086 10.9832 16.2654 9.20571C15.0665 8.75333 13.9971 8.52709 13.0251 8.52709H12.8306C10.7567 8.52709 8.90971 9.30271 7.28953 10.8216C5.6045 12.5667 4.79436 14.441 4.79436 16.477Z" fill="#9BA1A0"/>
<path d="M39.3923 4.5H39.8135C43.702 4.5 46.9424 6.24505 49.5672 9.76757C50.9281 11.8359 51.6086 13.9687 51.6086 16.134V16.8126C51.6086 20.6906 49.7292 23.9869 45.9703 26.6692C43.9288 27.8326 41.9522 28.4143 40.0727 28.4143H39.0682C36.1194 28.4143 33.3003 27.057 30.6107 24.3747C28.6665 21.9186 27.6943 19.3656 27.6943 16.6834V16.3601C27.6943 12.5468 29.3794 9.34743 32.717 6.7621C34.8556 5.24329 37.0915 4.5 39.3923 4.5ZM31.5504 16.2309V16.651C31.5504 19.4949 32.9438 21.7894 35.6982 23.5345C36.9619 24.2131 38.1608 24.5363 39.295 24.5363H39.9755C42.4382 24.5363 44.5121 23.4052 46.2619 21.1431C47.2664 19.6888 47.7525 18.2022 47.7525 16.6834V16.134C47.7525 13.1285 46.1647 10.7371 43.0215 8.95962C41.8226 8.50724 40.7532 8.281 39.7811 8.281H39.5867C37.5128 8.281 35.6658 9.05662 34.0456 10.5755C32.3606 12.3206 31.5504 14.195 31.5504 16.2309Z" fill="#9BA1A0"/>
<path d="M12.7133 42.1173C12.7133 45.0739 11.9577 47.4394 11.0379 47.4394C10.1179 47.4394 9.3623 45.0412 9.3623 42.1173C9.3623 39.1606 10.1179 36.7953 11.0379 36.7953C11.9577 36.7624 12.7133 39.1606 12.7133 42.1173Z" fill="#9BA1A0"/>
<path d="M28.3206 42.0207C28.3206 45.076 27.4664 47.5727 26.4151 47.5727C25.3639 47.5727 24.5098 45.076 24.5098 42.0207C24.5098 38.9655 25.3639 36.4688 26.4151 36.4688C27.4664 36.4688 28.3206 38.9327 28.3206 42.0207Z" fill="#9BA1A0"/>
<path d="M49.4447 42.0164C49.4447 45.2031 48.5905 47.7984 47.5392 47.7984C46.4879 47.7984 45.6338 45.2031 45.6338 42.0164C45.6338 38.8298 46.4879 36.2344 47.5392 36.2344C48.5905 36.2344 49.4447 38.8298 49.4447 42.0164Z" fill="#9BA1A0"/>
<path d="M43.9903 41.9531C43.9903 45.9281 42.0191 49.1148 39.5552 49.1148C37.0913 49.1148 35.1201 45.8953 35.1201 41.9531C35.1201 37.9779 37.0913 34.7913 39.5552 34.7913C42.0191 34.7584 43.9903 37.9779 43.9903 41.9531Z" fill="#9BA1A0"/>
<path d="M33.6439 42.0183C33.6439 44.3179 32.7897 46.1576 31.7385 46.1576C30.6871 46.1576 29.833 44.3179 29.833 42.0183C29.833 39.7186 30.6871 37.8789 31.7385 37.8789C32.7897 37.8789 33.6439 39.7515 33.6439 42.0183Z" fill="#9BA1A0"/>
<path d="M7.52513 42.1166C7.52513 46.2888 6.60528 49.6726 5.45544 49.6726C4.3056 49.6726 3.38574 46.2888 3.38574 42.1166C3.38574 37.9443 4.3056 34.5605 5.45544 34.5605C6.60528 34.5605 7.52513 37.9443 7.52513 42.1166Z" fill="#9BA1A0"/>
<path d="M2.03683 42.1169C2.03683 42.7083 1.57695 43.201 1.01846 43.201C0.459975 43.201 0 42.7083 0 42.1169C0 41.5256 0.459975 41.0328 1.01846 41.0328C1.57695 40.9999 2.03683 41.4927 2.03683 42.1169Z" fill="#9BA1A0"/>
<path d="M53.2211 42.1172C53.2211 42.8071 52.6955 43.3985 52.0056 43.3985C51.3485 43.3985 50.79 42.84 50.79 42.1172C50.79 41.4273 51.3157 40.8359 52.0056 40.8359C52.6955 40.8359 53.2211 41.4273 53.2211 42.1172Z" fill="#9BA1A0"/>
<path d="M22.2729 42.1181C22.2729 42.8409 21.7144 43.4322 21.0573 43.4322C20.3674 43.4322 19.8418 42.8409 19.8418 42.1181C19.8418 41.3954 20.4003 40.804 21.0573 40.804C21.7144 40.7712 22.2729 41.3625 22.2729 42.1181Z" fill="#9BA1A0"/>
<path d="M18.2334 42.116C18.2334 43.1673 17.3792 44.0543 16.3609 44.0543C15.3424 44.0543 14.4883 43.2002 14.4883 42.116C14.4883 41.0647 15.3424 40.1777 16.3609 40.1777C17.3792 40.1777 18.2334 41.0318 18.2334 42.116Z" fill="#9BA1A0"/>
<path d="M5.86957 34.875L0 18H5.86957L9.3913 29.5348L12.913 18H19.3696L12.913 34.875H5.86957Z" fill="#070707"/>
<path d="M21.9375 34.875V18H32.8451L32.8494 21.5069H26.6375L26.6576 24.75H31.1821L31.1576 28.6875H26.6332V34.875H21.9375Z" fill="#070707"/>
<path d="M41.6739 26.5443L35.8043 18H41.6739L44.6087 23.1266L48.1304 18H54L48.1304 26.5443L54 34.875H48.1304L44.6087 29.962L41.6739 34.875H35.8043L41.6739 26.5443Z" fill="#070707"/>
</g>
</svg>
