<svg width="76" height="55" viewBox="0 0 76 55" fill="none" xmlns="http://www.w3.org/2000/svg">
<path d="M17.241 47.4909C19.5482 48.6189 22.0323 49.339 24.5838 49.6192L24.8334 47.3345C22.5442 47.083 20.3155 46.437 18.2455 45.425L17.241 47.4909Z" fill="#070707"/>
<path d="M13.4231 45.1195C14.5128 45.9597 15.6777 46.697 16.9029 47.322L17.9422 45.2735C16.843 44.7127 15.7978 44.0512 14.8201 43.2974L13.4231 45.1195Z" fill="#070707"/>
<path d="M10.0986 12.8316C7.88527 15.4161 6.29023 18.4735 5.43528 21.7706L7.65353 22.349C8.42058 19.3909 9.85164 16.6478 11.8374 14.3291L10.0986 12.8316Z" fill="#070707"/>
<path d="M10.3984 33.7895C11.3188 36.1885 12.7455 38.3596 14.5807 40.1543L15.5063 39.2025C13.8079 37.5416 12.4875 35.5323 11.6357 33.3121L10.3984 33.7895Z" fill="#070707"/>
<path d="M15.2592 8.39952C13.4952 9.49684 11.8927 10.8358 10.4982 12.3777L12.1959 13.9218C13.4471 12.5385 14.8848 11.3371 16.4674 10.3526L15.2592 8.39952Z" fill="#070707"/>
<path d="M20.2261 6.10163C18.6169 6.61721 17.0714 7.31452 15.6194 8.18014L16.7906 10.1558C18.0934 9.37917 19.48 8.75355 20.9237 8.29098L20.2261 6.10163Z" fill="#070707"/>
<path d="M23.8487 5.26711C22.779 5.42084 21.7218 5.65237 20.6856 5.95986L21.3359 8.16379C22.2656 7.88791 23.2141 7.68018 24.1739 7.54225L23.8487 5.26711Z" fill="#070707"/>
<path d="M27.0113 5.04102C26.3312 5.04102 25.6515 5.07222 24.9743 5.13454L25.043 5.88576C25.6974 5.82555 26.3542 5.79539 27.0113 5.79539V5.04102Z" fill="#070707"/>
<path d="M6.10065 14.4905C5.10241 16.1174 4.29707 17.8553 3.70094 19.669L4.45533 19.9176C5.03216 18.1626 5.81143 16.481 6.77734 14.9068L6.10065 14.4905Z" fill="#070707"/>
<path d="M3.88984 35.576C4.39981 37.0116 5.04211 38.3966 5.80843 39.7131L6.27064 39.4433C5.52103 38.1556 4.89274 36.8008 4.39389 35.3965L3.88984 35.576Z" fill="#070707"/>
<path d="M8.04875 8.87514C6.77584 10.1784 5.64105 11.6097 4.66247 13.1462L5.77675 13.8558C6.70644 12.396 7.78452 11.0362 8.99382 9.79813L8.04875 8.87514Z" fill="#070707"/>
<path d="M8.68312 47.2214C9.26763 47.7611 9.87571 48.2748 10.5056 48.7608L11.2048 47.8546C10.6017 47.3892 10.0193 46.8973 9.45961 46.3805L8.68312 47.2214Z" fill="#070707"/>
<path d="M5.8679 34.4843C6.30371 35.7917 6.85918 37.0558 7.52719 38.2605L9.45841 37.1837C8.85661 36.0984 8.3562 34.9596 7.96358 33.7818L5.8679 34.4843Z" fill="#070707"/>
<path d="M3.79913 30.4392C3.98928 31.8714 4.31113 33.2829 4.76055 34.6556L7.93164 33.6117C7.5464 32.435 7.27053 31.2251 7.10753 29.9974L3.79913 30.4392Z" fill="#070707"/>
<path d="M0.859611 26.0211C0.782094 27.5144 0.831966 29.0116 1.00868 30.4964L7.12223 29.7647C6.98708 28.6292 6.94894 27.4842 7.00822 26.3421L0.859611 26.0211Z" fill="#070707"/>
<path d="M27.0004 53.6346C28.3982 53.6346 29.7939 53.5223 31.1739 53.2989L29.9723 45.8385C28.9896 45.9976 27.9958 46.0776 27.0004 46.0776L27.0004 53.6346Z" fill="#070707"/>
<path d="M29.91 1.29938C28.9483 1.19152 27.9814 1.13722 27.0137 1.13672L27.0119 4.73503C27.8469 4.73545 28.6813 4.78231 29.5111 4.87539L29.91 1.29938Z" fill="#070707"/>
<path d="M38.9163 4.01419C37.79 3.43672 36.6234 2.94189 35.4257 2.53358L34.2707 5.9404C35.3042 6.29273 36.3109 6.71973 37.2828 7.21804L38.9163 4.01419Z" fill="#070707"/>
<path d="M53.1765 27.3857C53.1765 22.9687 52.065 18.6232 49.9449 14.7515C47.8248 10.8798 44.7647 7.60726 41.0481 5.23685L39.1223 8.27309C42.3295 10.3186 44.9701 13.1425 46.7996 16.4834C48.629 19.8244 49.5882 23.5742 49.5882 27.3857H53.1765Z" fill="#070707"/>
<path d="M47.4509 41.3691C49.7962 37.9203 51.2362 33.9341 51.6378 29.7793L47.2891 29.3566C46.9584 32.7781 45.7725 36.0607 43.8412 38.9007L47.4509 41.3691Z" fill="#070707"/>
<path d="M32.5733 53.0328C36.0741 52.2679 39.381 50.7904 42.2892 48.6919C45.1974 46.5934 47.6451 43.9186 49.4806 40.833L46.3989 38.9896C44.815 41.6522 42.7029 43.9604 40.1933 45.7712C37.6838 47.582 34.8302 48.857 31.8094 49.517L32.5733 53.0328Z" fill="#070707"/>
<path d="M50.4329 25.8573C50.0552 19.8784 47.4224 14.2677 43.0692 10.1647C38.716 6.06159 32.9687 3.77373 26.9944 3.76565L26.99 6.99845C32.1453 7.00543 37.1048 8.97966 40.8612 12.5203C44.6177 16.0609 46.8896 20.9024 47.2155 26.0617L50.4329 25.8573Z" fill="#070707"/>
<ellipse cx="20.5214" cy="2.63776" rx="0.74896" ry="0.751043" fill="#070707"/>
<ellipse cx="13.8554" cy="5.04011" rx="0.74896" ry="0.751043" fill="#070707"/>
<ellipse cx="12.0949" cy="19.95" rx="0.56172" ry="0.563282" fill="#070707"/>
<ellipse cx="9.54902" cy="30.9148" rx="0.56172" ry="0.563282" fill="#070707"/>
<ellipse cx="18.3107" cy="42.1043" rx="0.56172" ry="0.563282" fill="#070707"/>
<ellipse cx="18.9113" cy="50.8172" rx="0.56172" ry="0.563282" fill="#070707"/>
<ellipse cx="2.77014" cy="36.4355" rx="0.823856" ry="0.826147" fill="#070707"/>
<ellipse cx="5.84121" cy="43.4957" rx="1.12344" ry="1.12656" fill="#070707"/>
<ellipse cx="14.3786" cy="50.78" rx="1.04854" ry="1.05146" fill="#070707"/>
<ellipse cx="2.24611" cy="20.1365" rx="0.973648" ry="0.976356" fill="#070707"/>
<line x1="0.5" y1="-0.5" x2="8.42421" y2="-0.5" transform="matrix(0.914777 -0.403958 0.402083 0.915603 8.53906 35.084)" stroke="#070707" stroke-linecap="square"/>
<line x1="15.1443" y1="35.6222" x2="20.3078" y2="32.2404" stroke="#070707" stroke-linecap="square"/>
<line x1="0.5" y1="-0.5" x2="3.6901" y2="-0.5" transform="matrix(0.697105 -0.716969 0.71503 0.699094 8.68848 47.3262)" stroke="#070707" stroke-linecap="square"/>
<line x1="0.5" y1="-0.5" x2="2.31111" y2="-0.5" transform="matrix(0.719357 -0.694641 0.692641 0.721282 12.958 41.6934)" stroke="#070707" stroke-linecap="square"/>
<line x1="19.8127" y1="45.1684" x2="21.3423" y2="41.6444" stroke="#070707" stroke-linecap="square"/>
<line x1="0.5" y1="-0.5" x2="1.25319" y2="-0.5" transform="matrix(0.17088 -0.985292 0.985131 0.171804 23.9678 46.8008)" stroke="#070707" stroke-linecap="square"/>
<line x1="26.5" y1="52.8848" x2="26.5" y2="39.8848" stroke="#070707" stroke-linecap="square"/>
<line x1="0.5" y1="-0.5" x2="2.12399" y2="-0.5" transform="matrix(0.799199 -0.601067 0.598933 0.800799 9.5127 42.0703)" stroke="#070707" stroke-linecap="square"/>
<line x1="0.5" y1="-0.5" x2="1.84113" y2="-0.5" transform="matrix(0.991733 -0.128321 0.127622 0.991823 11.5342 30.127)" stroke="#070707" stroke-linecap="square"/>
<line x1="7.5" y1="26.8848" x2="18.5" y2="26.8848" stroke="#070707" stroke-linecap="square"/>
<line x1="8.53516" y1="22.0116" x2="16.619" y2="23.7891" stroke="#070707" stroke-linecap="square"/>
<line x1="0.5" y1="-0.5" x2="2.18655" y2="-0.5" transform="matrix(0.585441 0.810715 -0.809167 0.587578 15.9531 11.7285)" stroke="#070707" stroke-linecap="square"/>
<line x1="0.5" y1="-0.5" x2="2.12211" y2="-0.5" transform="matrix(0.399885 0.916565 -0.915748 0.401754 19.249 9.77539)" stroke="#070707" stroke-linecap="square"/>
<line x1="23.9502" y1="8.89952" x2="25.4015" y2="16.8027" stroke="#070707" stroke-linecap="square"/>
<path d="M24.1887 10.6046C21.9455 10.9785 19.8004 11.8017 17.8815 13.0252C15.9626 14.2488 14.3092 15.8475 13.02 17.7259L13.5076 18.0624C14.7517 16.2497 16.3473 14.7068 18.1991 13.5261C20.0509 12.3454 22.121 11.5509 24.2857 11.1902L24.1887 10.6046Z" fill="#070707"/>
<line x1="0.5" y1="-0.5" x2="1.04548" y2="-0.5" transform="matrix(0.484613 0.874729 -0.873584 0.486674 13.707 5.34375)" stroke="#070707" stroke-linecap="square"/>
<path d="M26 36.3848L21 19.3848H24.125L27.875 32.4617L32.25 19.3848H41V22.0002H34.75L33.5 26.5771L41 36.3848H37.25L32.25 29.8463L29.75 36.3848H26Z" fill="#070707" stroke="black"/>
<path d="M23.8331 2.99464C18.8476 3.6446 14.182 5.81275 10.468 9.20555L10.8286 9.60125C14.4616 6.28246 19.0254 4.16159 23.9021 3.52581L23.8331 2.99464Z" fill="#070707"/>
</svg>
