<svg width="14" height="14" viewBox="0 0 14 14" fill="none" xmlns="http://www.w3.org/2000/svg">
<g clip-path="url(#clip0_435_16)">
<rect width="14" height="14" fill="white"/>
<path d="M13.9398 11.1616L13.8699 10.9489C13.7058 10.4597 13.165 9.94925 12.6667 9.81249L10.8269 9.3096C10.3286 9.1744 9.61756 9.35671 9.25148 9.72284L8.58603 10.3883C6.16737 9.73349 4.26984 7.83595 3.61653 5.4173L4.28199 4.75184C4.64661 4.38722 4.82892 3.67621 4.69372 3.17639L4.19229 1.33656C4.05709 0.838243 3.54356 0.297389 3.05439 0.133309L2.8447 0.0633992C2.35397 -0.10068 1.65361 0.0649063 1.28899 0.431083L0.292356 1.42771C0.114616 1.60395 0.00065965 2.1114 0.00065965 2.1114C-0.0327883 5.27451 1.20697 8.32061 3.44331 10.5585C5.67358 12.7887 8.70907 14.027 11.8615 13.9996C11.8782 13.9996 12.3993 13.8887 12.5771 13.7109L13.5737 12.7142C13.9383 12.3511 14.1024 11.6508 13.9398 11.1616Z" fill="#9BA1A0"/>
</g>
<defs>
<clipPath id="clip0_435_16">
<rect width="14" height="14" fill="white"/>
</clipPath>
</defs>
</svg>
