<svg width="14" height="15" viewBox="0 0 14 15" fill="none" xmlns="http://www.w3.org/2000/svg">
<path d="M13.9373 11.2315L13.8674 11.0175C13.7033 10.5253 13.1626 10.0116 12.6643 9.87397L10.8249 9.36793C10.3267 9.23189 9.61578 9.41534 9.24977 9.78376L8.58444 10.4534C6.16623 9.79447 4.26905 7.88505 3.61586 5.45124L4.2812 4.78161C4.64575 4.41471 4.82803 3.69924 4.69285 3.19629L4.19152 1.34493C4.05634 0.843495 3.5429 0.299252 3.05382 0.134144L2.84418 0.0637964C2.35354 -0.101311 1.6533 0.065313 1.28875 0.433784L0.292302 1.43666C0.114595 1.614 0.000659528 2.12463 0.000659528 2.12463C-0.0327822 5.30756 1.20675 8.37274 3.44268 10.6246C5.67253 12.8688 8.70746 14.1149 11.8593 14.0873C11.876 14.0873 12.397 13.9757 12.5747 13.7968L13.5712 12.7939C13.9357 12.4285 14.0997 11.7238 13.9373 11.2315Z" fill="#9BA1A0"/>
</svg>
