<svg width="59" height="17" viewBox="0 0 59 17" fill="none" xmlns="http://www.w3.org/2000/svg">
<path d="M13.8895 8.6296C13.8895 11.8546 13.064 14.4347 12.0591 14.4347C11.054 14.4347 10.2285 11.8189 10.2285 8.6296C10.2285 5.40458 11.054 2.82458 12.0591 2.82458C13.064 2.78873 13.8895 5.40458 13.8895 8.6296Z" fill="#070707"/>
<path d="M30.9368 8.52268C30.9368 11.8553 30.0036 14.5786 28.855 14.5786C27.7066 14.5786 26.7734 11.8553 26.7734 8.52268C26.7734 5.1901 27.7066 2.4668 28.855 2.4668C30.0036 2.4668 30.9368 5.15435 30.9368 8.52268Z" fill="#070707"/>
<path d="M54.015 8.51974C54.015 11.9956 53.0818 14.8265 51.9333 14.8265C50.7847 14.8265 49.8516 11.9956 49.8516 8.51974C49.8516 5.04385 50.7847 2.21289 51.9333 2.21289C53.0818 2.21289 54.015 5.04385 54.015 8.51974Z" fill="#070707"/>
<path d="M48.0579 8.44684C48.0579 12.7827 45.9043 16.2585 43.2126 16.2585C40.5207 16.2585 38.3672 12.7469 38.3672 8.44684C38.3672 4.11092 40.5207 0.635038 43.2126 0.635038C45.9043 0.599185 48.0579 4.11092 48.0579 8.44684Z" fill="#070707"/>
<path d="M36.7523 8.51898C36.7523 11.0273 35.8191 13.034 34.6706 13.034C33.522 13.034 32.5889 11.0273 32.5889 8.51898C32.5889 6.01058 33.522 4.00391 34.6706 4.00391C35.8191 4.00391 36.7523 6.04643 36.7523 8.51898Z" fill="#070707"/>
<path d="M8.21958 8.62659C8.21958 13.1775 7.21464 16.8684 5.95842 16.8684C4.70221 16.8684 3.69727 13.1775 3.69727 8.62659C3.69727 4.07566 4.70221 0.384766 5.95842 0.384766C7.21464 0.384766 8.21958 4.07566 8.21958 8.62659Z" fill="#070707"/>
<path d="M2.22525 8.62755C2.22525 9.27257 1.72283 9.81004 1.11268 9.81004C0.502526 9.81004 0 9.27257 0 8.62755C0 7.98252 0.502526 7.44505 1.11268 7.44505C1.72283 7.4092 2.22525 7.94667 2.22525 8.62755Z" fill="#070707"/>
<path d="M58.1413 8.62797C58.1413 9.38055 57.5671 10.0256 56.8134 10.0256C56.0955 10.0256 55.4854 9.41641 55.4854 8.62797C55.4854 7.87549 56.0596 7.23047 56.8134 7.23047C57.5671 7.23047 58.1413 7.87549 58.1413 8.62797Z" fill="#070707"/>
<path d="M24.3327 8.62814C24.3327 9.41647 23.7226 10.0615 23.0047 10.0615C22.251 10.0615 21.6768 9.41647 21.6768 8.62814C21.6768 7.83981 22.2869 7.19478 23.0047 7.19478C23.7226 7.15893 24.3327 7.80396 24.3327 8.62814Z" fill="#070707"/>
<path d="M19.9197 8.62791C19.9197 9.77455 18.9865 10.742 17.8739 10.742C16.7612 10.742 15.8281 9.8104 15.8281 8.62791C15.8281 7.48116 16.7612 6.51367 17.8739 6.51367C18.9865 6.51367 19.9197 7.44531 19.9197 8.62791Z" fill="#070707"/>
</svg>
