<svg width="14" height="14" viewBox="0 0 14 14" fill="#9BA1A0" xmlns="http://www.w3.org/2000/svg">
<path d="M10.4045 13.988C10.4045 13.862 10.4045 13.7531 10.4045 13.6386C10.4045 12.1092 10.4099 10.5855 10.3991 9.05614C10.3991 8.79265 10.3777 8.5177 10.3187 8.26567C10.1258 7.41792 9.48258 6.99404 8.5553 7.07423C7.86922 7.13151 7.25282 7.78451 7.20458 8.54061C7.17242 8.99886 7.18314 9.4571 7.17778 9.91535C7.17242 11.1583 7.17778 12.3956 7.17778 13.6386C7.17778 13.7531 7.17778 13.862 7.17778 13.9937C6.30945 13.9937 5.46257 13.9937 4.59961 13.9937C4.59961 11.0151 4.59961 8.03082 4.59961 5.03504C5.44113 5.03504 6.28265 5.03504 7.15634 5.03504C7.15634 5.38445 7.15634 5.73959 7.15634 6.1692C7.24746 6.05464 7.30106 5.99736 7.33858 5.92862C8.49634 4.07273 11.6373 4.27321 12.57 6.46133C12.8272 7.0685 12.9827 7.70432 12.988 8.36877C13.0041 10.2075 12.9988 12.0519 12.9988 13.8963C12.9988 13.925 12.9934 13.9536 12.9827 13.9994C12.1358 13.988 11.2835 13.988 10.4045 13.988Z"/>
<path d="M3.4 13.9994C2.58994 13.9994 1.80503 13.9994 1 13.9994C1 10.8863 1 7.78516 1 4.66602C1.8 4.66602 2.58994 4.66602 3.4 4.66602C3.4 7.76716 3.4 10.8683 3.4 13.9994Z"/>
<path d="M2.16856 2.33332C1.47807 2.32857 0.995207 1.83435 1.00004 1.15005C1.00486 0.465743 1.50704 -0.00471644 2.22651 3.56735e-05C2.91217 0.00478779 3.40952 0.50376 3.39986 1.18331C3.39986 1.85811 2.8832 2.33808 2.16856 2.33332Z"/>
</svg>
