<svg width="95" height="46" viewBox="0 0 95 46" fill="none" xmlns="http://www.w3.org/2000/svg">
<path d="M14.1492 8.50867L18.9774 8.56678V8.62481L10.6378 16.6986C17.3095 20.0674 19.0652 25.5273 19.8845 29.9708H16.3146C15.9342 27.5023 14.5003 21.1711 8.209 19.1962L4.60978 22.8265V29.8256C4.60978 29.9127 4.55126 29.9708 4.46347 29.9708H1.01057C0.922782 29.9708 0.864258 29.9127 0.864258 29.8256V4.96552C0.864258 4.87839 0.922782 4.82031 1.01057 4.82031H4.46347C4.55126 4.82031 4.60978 4.87839 4.60978 4.96552V9.75744V15.9725V17.3084" fill="#070707"/>
<path d="M22.1641 16.484C23.5394 10.8498 27.519 8.17792 34.0151 8.43935V8.70069V8.99109V9.51386V11.5759V11.8663C33.6933 11.8663 33.3128 11.8663 32.9617 11.8663C28.9528 11.9534 26.4655 13.6959 25.6462 17.3843L25.6755 20.608V29.8434C25.6755 29.9014 25.6169 29.9596 25.5585 29.9596H22.3104C22.2226 29.9596 22.1933 29.9305 22.1933 29.8434" fill="#070707"/>
<path d="M46.3956 8.4707H46.7759C50.2874 8.4707 53.2136 10.0389 55.5838 13.2045C56.8128 15.0632 57.4273 16.98 57.4273 18.9259V19.5357C57.4273 23.0208 55.7301 25.9831 52.3357 28.3936C50.4922 29.4391 48.7073 29.9618 47.0101 29.9618H46.1029C43.4401 29.9618 40.8944 28.742 38.4656 26.3316C36.7099 24.1244 35.832 21.83 35.832 19.4196V19.1291C35.832 15.7022 37.3537 12.827 40.3676 10.5036C42.2696 9.13867 44.2887 8.4707 46.3956 8.4707ZM39.2849 19.013V19.3905C39.2849 21.9462 40.5432 24.0082 43.0305 25.5765C44.1717 26.1864 45.2543 26.4768 46.2785 26.4768H46.893C49.1169 26.4768 50.9897 25.4603 52.5698 23.4274C53.4769 22.1204 53.9159 20.7845 53.9159 19.4196V18.9259C53.9159 16.2249 52.482 14.0758 49.6436 12.4784C48.561 12.0719 47.5953 11.8686 46.7175 11.8686H46.5419C44.6691 11.8686 43.0012 12.5656 41.5381 13.9306C40.0165 15.4988 39.2849 17.1833 39.2849 19.013Z" fill="#9BA1A0"/>
<path d="M70.2696 8.4707H70.65C74.1615 8.4707 77.0876 10.0389 79.4578 13.2045C80.6868 15.0632 81.3013 16.98 81.3013 18.9259V19.5357C81.3013 23.0208 79.6041 25.9831 76.2097 28.3936C74.3662 29.4391 72.5813 29.9618 70.8841 29.9618H69.977C67.3141 29.9618 64.7684 28.742 62.3396 26.3316C60.5839 24.1244 59.7061 21.83 59.7061 19.4196V19.1291C59.7061 15.7022 61.2277 12.827 64.2417 10.5036C66.1729 9.13867 68.192 8.4707 70.2696 8.4707ZM63.1882 19.013V19.3905C63.1882 21.9462 64.4465 24.0082 66.9338 25.5765C68.075 26.1864 69.1576 26.4768 70.1818 26.4768H70.7963C73.0202 26.4768 74.893 25.4603 76.4731 23.4274C77.3802 22.1204 77.8192 20.7845 77.8192 19.4196V18.9259C77.8192 16.2249 76.3853 14.0758 73.5469 12.4784C72.4643 12.0719 71.4986 11.8686 70.6208 11.8686H70.4452C68.5724 11.8686 66.9045 12.5656 65.4414 13.9306C63.9198 15.4988 63.1882 17.1833 63.1882 19.013Z" fill="#9BA1A0"/>
<path d="M95.0012 30.2561C93.6254 30.2561 89.7926 30.3143 86.8663 27.8456C84.6131 25.9579 83.9109 23.4022 83.6475 22.2114C83.6475 20.9336 83.6475 20.0623 83.6475 19.7719C83.6475 18.6683 83.6475 17.2743 83.6475 15.8222V7.57422H83.7645H87.0126H87.1296V11.9015H95.0012V15.3575H87.1296V18.0875L87.1589 21.3402C87.8615 24.8833 90.3773 26.7711 94.3863 26.8872C94.679 26.8872 94.9718 26.8872 94.9718 26.8872" fill="#9BA1A0"/>
<path d="M12.0104 1.00902H10.5087V5.14258H9.89591V1.00902H8.39746V0.505859H12.0104V1.00902ZM16.2939 5.14258H15.6747V2.99937H13.3195V5.14258H12.7035V0.505859H13.3195V2.49939H15.6747V0.505859H16.2939V5.14258ZM20.0288 2.99937H18.0042V4.6426H20.3561V5.14258H17.3881V0.505859H20.3241V1.00902H18.0042V2.49939H20.0288V2.99937Z" fill="#070707"/>
<path d="M1.00213 36.9647L2.83736 42.1685H2.9098L4.74503 36.9647H5.52983L3.25994 43.1465H2.48722L0.21733 36.9647H1.00213ZM8.7713 36.9647V43.1465H8.02272V36.9647H8.7713ZM15.1829 38.5101C15.1467 38.2042 14.9998 37.9668 14.7422 37.7978C14.4846 37.6287 14.1687 37.5442 13.7944 37.5442C13.5207 37.5442 13.2813 37.5885 13.076 37.677C12.8728 37.7656 12.7138 37.8873 12.5991 38.0423C12.4864 38.1972 12.4301 38.3733 12.4301 38.5705C12.4301 38.7355 12.4693 38.8774 12.5478 38.9961C12.6283 39.1128 12.7309 39.2104 12.8557 39.2889C12.9804 39.3654 13.1112 39.4287 13.2481 39.479C13.3849 39.5273 13.5107 39.5666 13.6254 39.5968L14.2532 39.7658C14.4142 39.8081 14.5933 39.8664 14.7905 39.9409C14.9897 40.0153 15.1799 40.117 15.361 40.2457C15.5441 40.3725 15.695 40.5355 15.8138 40.7347C15.9325 40.9339 15.9919 41.1784 15.9919 41.4682C15.9919 41.8023 15.9043 42.1041 15.7293 42.3738C15.5562 42.6434 15.3026 42.8577 14.9686 43.0167C14.6366 43.1757 14.2331 43.2551 13.7582 43.2551C13.3155 43.2551 12.9321 43.1837 12.6082 43.0408C12.2862 42.898 12.0326 42.6987 11.8475 42.4432C11.6644 42.1876 11.5608 41.8908 11.5366 41.5527H12.3093C12.3295 41.7862 12.4079 41.9793 12.5448 42.1323C12.6836 42.2832 12.8587 42.3959 13.07 42.4703C13.2833 42.5428 13.5127 42.579 13.7582 42.579C14.0439 42.579 14.3005 42.5327 14.5279 42.4402C14.7553 42.3456 14.9354 42.2148 15.0682 42.0478C15.201 41.8787 15.2674 41.6815 15.2674 41.4561C15.2674 41.2509 15.2101 41.0839 15.0954 40.9551C14.9807 40.8263 14.8298 40.7217 14.6426 40.6412C14.4555 40.5607 14.2532 40.4902 14.0359 40.4299L13.2752 40.2125C12.7923 40.0737 12.4099 39.8755 12.1282 39.6179C11.8465 39.3603 11.7056 39.0233 11.7056 38.6067C11.7056 38.2606 11.7992 37.9587 11.9864 37.7012C12.1755 37.4416 12.4291 37.2404 12.747 37.0975C13.067 36.9526 13.4242 36.8801 13.8186 36.8801C14.217 36.8801 14.5712 36.9516 14.8811 37.0945C15.191 37.2353 15.4365 37.4285 15.6176 37.674C15.8007 37.9195 15.8973 38.1982 15.9073 38.5101H15.1829ZM22.8095 36.9647H23.558V41.0577C23.558 41.4803 23.4584 41.8576 23.2592 42.1896C23.062 42.5196 22.7833 42.7802 22.4231 42.9714C22.0629 43.1606 21.6403 43.2551 21.1553 43.2551C20.6704 43.2551 20.2478 43.1606 19.8876 42.9714C19.5274 42.7802 19.2477 42.5196 19.0485 42.1896C18.8512 41.8576 18.7526 41.4803 18.7526 41.0577V36.9647H19.5012V40.9973C19.5012 41.2992 19.5676 41.5678 19.7004 41.8033C19.8333 42.0367 20.0224 42.2208 20.2679 42.3556C20.5154 42.4885 20.8112 42.5549 21.1553 42.5549C21.4994 42.5549 21.7953 42.4885 22.0428 42.3556C22.2903 42.2208 22.4794 42.0367 22.6102 41.8033C22.7431 41.5678 22.8095 41.2992 22.8095 40.9973V36.9647ZM26.8365 43.1465H26.0517L28.3216 36.9647H29.0943L31.3642 43.1465H30.5794L28.7321 37.9426H28.6838L26.8365 43.1465ZM27.1263 40.7317H30.2896V41.3958H27.1263V40.7317ZM33.8571 43.1465V36.9647H34.6057V42.4824H37.4792V43.1465H33.8571ZM48.0096 43.1465V36.9647H51.7404V37.6287H48.7582V39.7175H51.5472V40.3816H48.7582V42.4824H51.7887V43.1465H48.0096ZM54.6197 43.1465V36.9647H58.3263V37.6287H55.3682V39.7175H58.0486V40.3816H55.3682V43.1465H54.6197ZM61.1384 43.1465V36.9647H64.8451V37.6287H61.887V39.7175H64.5674V40.3816H61.887V43.1465H61.1384ZM67.6572 43.1465V36.9647H71.388V37.6287H68.4058V39.7175H71.1948V40.3816H68.4058V42.4824H71.4363V43.1465H67.6572ZM79.2417 38.8965H78.4931C78.4489 38.6812 78.3714 38.492 78.2607 38.329C78.152 38.166 78.0192 38.0292 77.8623 37.9185C77.7073 37.8058 77.5353 37.7213 77.3461 37.665C77.1569 37.6086 76.9597 37.5804 76.7545 37.5804C76.3802 37.5804 76.0411 37.675 75.7373 37.8642C75.4354 38.0533 75.1949 38.332 75.0159 38.7003C74.8388 39.0685 74.7502 39.5203 74.7502 40.0556C74.7502 40.5908 74.8388 41.0426 75.0159 41.4109C75.1949 41.7791 75.4354 42.0578 75.7373 42.247C76.0411 42.4361 76.3802 42.5307 76.7545 42.5307C76.9597 42.5307 77.1569 42.5025 77.3461 42.4462C77.5353 42.3899 77.7073 42.3063 77.8623 42.1957C78.0192 42.083 78.152 41.9451 78.2607 41.7821C78.3714 41.6171 78.4489 41.428 78.4931 41.2147H79.2417C79.1854 41.5306 79.0827 41.8133 78.9338 42.0629C78.7849 42.3124 78.5998 42.5247 78.3784 42.6998C78.1571 42.8728 77.9085 43.0046 77.6329 43.0952C77.3592 43.1857 77.0664 43.231 76.7545 43.231C76.2273 43.231 75.7584 43.1022 75.3479 42.8446C74.9374 42.5871 74.6144 42.2208 74.379 41.7459C74.1435 41.271 74.0258 40.7076 74.0258 40.0556C74.0258 39.4036 74.1435 38.8401 74.379 38.3652C74.6144 37.8903 74.9374 37.5241 75.3479 37.2665C75.7584 37.0089 76.2273 36.8801 76.7545 36.8801C77.0664 36.8801 77.3592 36.9254 77.6329 37.016C77.9085 37.1065 78.1571 37.2393 78.3784 37.4144C78.5998 37.5875 78.7849 37.7988 78.9338 38.0483C79.0827 38.2958 79.1854 38.5785 79.2417 38.8965ZM81.6433 37.6287V36.9647H86.2796V37.6287H84.3358V43.1465H83.5872V37.6287H81.6433ZM92.3456 38.5101C92.3094 38.2042 92.1625 37.9668 91.905 37.7978C91.6474 37.6287 91.3314 37.5442 90.9572 37.5442C90.6835 37.5442 90.444 37.5885 90.2388 37.677C90.0355 37.7656 89.8765 37.8873 89.7618 38.0423C89.6492 38.1972 89.5928 38.3733 89.5928 38.5705C89.5928 38.7355 89.632 38.8774 89.7105 38.9961C89.791 39.1128 89.8936 39.2104 90.0184 39.2889C90.1432 39.3654 90.274 39.4287 90.4108 39.479C90.5476 39.5273 90.6734 39.5666 90.7881 39.5968L91.416 39.7658C91.5769 39.8081 91.756 39.8664 91.9532 39.9409C92.1525 40.0153 92.3426 40.117 92.5237 40.2457C92.7069 40.3725 92.8578 40.5355 92.9765 40.7347C93.0952 40.9339 93.1546 41.1784 93.1546 41.4682C93.1546 41.8023 93.0671 42.1041 92.892 42.3738C92.7189 42.6434 92.4654 42.8577 92.1313 43.0167C91.7993 43.1757 91.3958 43.2551 90.9209 43.2551C90.4782 43.2551 90.0949 43.1837 89.7709 43.0408C89.4489 42.898 89.1954 42.6987 89.0102 42.4432C88.8271 42.1876 88.7235 41.8908 88.6993 41.5527H89.4721C89.4922 41.7862 89.5707 41.9793 89.7075 42.1323C89.8464 42.2832 90.0214 42.3959 90.2327 42.4703C90.446 42.5428 90.6754 42.579 90.9209 42.579C91.2067 42.579 91.4632 42.5327 91.6906 42.4402C91.918 42.3456 92.0981 42.2148 92.2309 42.0478C92.3638 41.8787 92.4302 41.6815 92.4302 41.4561C92.4302 41.2509 92.3728 41.0839 92.2581 40.9551C92.1434 40.8263 91.9925 40.7217 91.8053 40.6412C91.6182 40.5607 91.416 40.4902 91.1986 40.4299L90.438 40.2125C89.955 40.0737 89.5727 39.8755 89.291 39.6179C89.0092 39.3603 88.8684 39.0233 88.8684 38.6067C88.8684 38.2606 88.9619 37.9587 89.1491 37.7012C89.3382 37.4416 89.5918 37.2404 89.9097 37.0975C90.2297 36.9526 90.5869 36.8801 90.9813 36.8801C91.3797 36.8801 91.7339 36.9516 92.0438 37.0945C92.3537 37.2353 92.5992 37.4285 92.7803 37.674C92.9634 37.9195 93.06 38.1982 93.0701 38.5101H92.3456Z" fill="#070707"/>
</svg>
