<svg width="54" height="54" viewBox="0 0 54 54" fill="none" xmlns="http://www.w3.org/2000/svg">
<g clip-path="url(#clip0_396_519)">
<path d="M26.9998 0C12.2071 0 0.227539 12.0842 0.227539 27C0.227539 41.9158 12.2071 54 26.9998 54C41.7822 54 53.7719 41.9158 53.7719 27C53.7719 12.0842 41.7839 0 26.9913 0H26.9998ZM26.9998 1.18631C33.829 1.18631 40.2617 3.87619 45.0965 8.74459C49.9171 13.595 52.614 20.1615 52.594 27C52.594 33.8901 49.9312 40.3768 45.0965 45.2554C42.7328 47.6534 39.9152 49.5567 36.8082 50.8545C33.7012 52.1521 30.3669 52.8181 26.9998 52.8137C23.6326 52.8181 20.2983 52.1521 17.1913 50.8545C14.0842 49.5567 11.2667 47.6534 8.90295 45.2554C4.08002 40.4058 1.38018 33.8396 1.39698 27C1.39698 20.1099 4.06828 13.6232 8.89456 8.74459C11.2574 6.34308 14.0759 4.43749 17.1849 3.13959C20.2939 1.8417 23.6307 1.17762 26.9998 1.18631ZM25.6548 10.6869C21.296 11.8564 17.2612 14.0974 11.8831 20.2669C6.50504 26.4364 7.52428 31.5343 7.52428 31.5343C7.52428 31.5343 9.00929 28.0277 12.5784 24.3355C14.2743 22.5872 15.5315 21.9983 16.4022 21.9983C16.5857 21.9889 16.7693 22.0169 16.9416 22.0807C17.114 22.1445 17.2716 22.2427 17.4048 22.3692C17.5381 22.4958 17.6441 22.6482 17.7166 22.8171C17.7891 22.986 17.8265 23.1678 17.8265 23.3516V35.8763C17.8265 37.1149 17.0266 37.3883 16.2892 37.3697C15.6648 37.3613 15.0843 37.1419 15.0843 37.1419C18.7496 42.4676 27.5212 43.2152 27.5212 43.2152L31.3704 39.1011L31.4581 39.1804L34.9833 42.1858C41.4346 38.3535 44.5464 31.2525 44.5464 31.2525C41.6641 34.2934 39.8348 35.0055 38.7447 35.0055C37.7778 34.9971 37.3998 34.4335 37.3998 34.4335C37.3475 34.1702 37.2598 30.3547 37.2243 26.541C37.1888 22.5939 37.2243 18.6401 37.4184 18.63C38.5338 16.5375 42.086 12.3187 42.086 12.3187C35.4508 13.6283 31.8378 17.9786 31.8378 17.9786C30.7662 17.1349 28.586 17.2749 28.586 17.2749C29.6052 17.8369 30.6245 19.4721 30.6245 20.8255V34.1499C30.6245 34.1499 28.4004 36.1091 26.6876 36.1091C26.2996 36.1127 25.9165 36.0227 25.5708 35.8468C25.225 35.6707 24.9267 35.414 24.7014 35.0983C24.5663 34.9195 24.454 34.7245 24.3672 34.5178V18.0647C24.1293 18.2382 23.8448 18.3364 23.5505 18.3465C23.1809 18.3465 22.8029 18.1625 22.5481 17.6259C22.354 17.2209 22.2308 16.6151 22.2308 15.7275C22.2308 12.6951 25.6582 10.6819 25.6582 10.6819L25.6548 10.6869Z" fill="#070707"/>
</g>
<defs>
<clipPath id="clip0_396_519">
<rect width="54" height="54" fill="white"/>
</clipPath>
</defs>
</svg>
