<svg width="76" height="54" viewBox="0 0 76 54" fill="none" xmlns="http://www.w3.org/2000/svg">
<g clip-path="url(#clip0_396_519)">
<path d="M27.2276 0.384766C12.309 0.384766 0.227539 12.469 0.227539 27.3848C0.227539 42.3006 12.309 54.3848 27.2276 54.3848C42.1358 54.3848 54.2275 42.3006 54.2275 27.3848C54.2275 12.469 42.1375 0.384766 27.219 0.384766H27.2276ZM27.2276 1.57108C34.115 1.57108 40.6024 4.26095 45.4783 9.12936C50.34 13.9798 53.0598 20.5463 53.0396 27.3848C53.0396 34.2748 50.3541 40.7616 45.4783 45.6402C43.0945 48.0382 40.253 49.9415 37.1195 51.2392C33.986 52.5369 30.6234 53.2029 27.2276 53.1984C23.8317 53.2029 20.4691 52.5369 17.3356 51.2392C14.2021 49.9415 11.3606 48.0382 8.97678 45.6402C4.1128 40.7906 1.38999 34.2243 1.40693 27.3848C1.40693 20.4947 4.10097 14.008 8.96832 9.12936C11.3512 6.72785 14.1938 4.82225 17.3292 3.52436C20.4646 2.22646 23.8299 1.56239 27.2276 1.57108ZM25.8711 11.0717C21.4752 12.2412 17.4061 14.4822 11.9823 20.6516C6.55846 26.8212 7.58638 31.9191 7.58638 31.9191C7.58638 31.9191 9.08402 28.4124 12.6835 24.7202C14.3938 22.972 15.6617 22.383 16.5399 22.383C16.7249 22.3736 16.9101 22.4016 17.0839 22.4654C17.2577 22.5293 17.4167 22.6274 17.551 22.754C17.6854 22.8806 17.7924 23.0329 17.8654 23.2018C17.9386 23.3707 17.9763 23.5526 17.9763 23.7364V36.261C17.9763 37.4996 17.1696 37.773 16.4258 37.7544C15.7961 37.746 15.2107 37.5266 15.2107 37.5266C18.9072 42.8524 27.7534 43.6 27.7534 43.6L31.6354 39.4858L31.7239 39.5652L35.2791 42.5706C41.7853 38.7383 44.9235 31.6373 44.9235 31.6373C42.0167 34.6782 40.1719 35.3902 39.0725 35.3902C38.0973 35.3818 37.7161 34.8182 37.7161 34.8182C37.6634 34.555 37.5749 30.7395 37.5391 26.9258C37.5034 22.9787 37.5391 19.0249 37.7348 19.0148C38.8597 16.9222 42.4422 12.7035 42.4422 12.7035C35.7505 14.013 32.1067 18.3634 32.1067 18.3634C31.0261 17.5196 28.8273 17.6597 28.8273 17.6597C29.8552 18.2216 30.8832 19.8568 30.8832 21.2102V34.5347C30.8832 34.5347 28.6401 36.4939 26.9127 36.4939C26.5215 36.4975 26.1351 36.4075 25.7864 36.2315C25.4377 36.0555 25.1369 35.7988 24.9096 35.4831C24.7734 35.3042 24.6602 35.1093 24.5726 34.9026V18.4494C24.3327 18.623 24.0457 18.7212 23.749 18.7312C23.3762 18.7312 22.995 18.5473 22.738 18.0107C22.5423 17.6057 22.4181 16.9999 22.4181 16.1122C22.4181 13.0798 25.8746 11.0666 25.8746 11.0666L25.8711 11.0717Z" fill="#070707"/>
</g>
<defs>
<clipPath id="clip0_396_519">
<rect width="76" height="54" fill="white"/>
</clipPath>
</defs>
</svg>
