<svg width="59" height="17" viewBox="0 0 59 17" fill="none" xmlns="http://www.w3.org/2000/svg">
<path d="M13.8895 8.24484C13.8895 11.4699 13.064 14.05 12.0591 14.05C11.054 14.05 10.2285 11.4341 10.2285 8.24484C10.2285 5.01981 11.054 2.43982 12.0591 2.43982C13.064 2.40396 13.8895 5.01981 13.8895 8.24484Z" fill="#070707"/>
<path d="M30.9368 8.13791C30.9368 11.4705 30.0036 14.1938 28.855 14.1938C27.7066 14.1938 26.7734 11.4705 26.7734 8.13791C26.7734 4.80533 27.7066 2.08203 28.855 2.08203C30.0036 2.08203 30.9368 4.76959 30.9368 8.13791Z" fill="#070707"/>
<path d="M54.015 8.13497C54.015 11.6109 53.0818 14.4417 51.9333 14.4417C50.7847 14.4417 49.8516 11.6109 49.8516 8.13497C49.8516 4.65909 50.7847 1.82812 51.9333 1.82812C53.0818 1.82812 54.015 4.65909 54.015 8.13497Z" fill="#070707"/>
<path d="M48.0579 8.06208C48.0579 12.3979 45.9043 15.8738 43.2126 15.8738C40.5207 15.8738 38.3672 12.3621 38.3672 8.06208C38.3672 3.72616 40.5207 0.250272 43.2126 0.250272C45.9043 0.21442 48.0579 3.72616 48.0579 8.06208Z" fill="#070707"/>
<path d="M36.7523 8.13422C36.7523 10.6425 35.8191 12.6492 34.6706 12.6492C33.522 12.6492 32.5889 10.6425 32.5889 8.13422C32.5889 5.62582 33.522 3.61914 34.6706 3.61914C35.8191 3.61914 36.7523 5.66167 36.7523 8.13422Z" fill="#070707"/>
<path d="M8.21958 8.24182C8.21958 12.7927 7.21464 16.4836 5.95842 16.4836C4.70221 16.4836 3.69727 12.7927 3.69727 8.24182C3.69727 3.69089 4.70221 0 5.95842 0C7.21464 0 8.21958 3.69089 8.21958 8.24182Z" fill="#070707"/>
<path d="M2.22525 8.24278C2.22525 8.88781 1.72283 9.42528 1.11268 9.42528C0.502526 9.42528 0 8.88781 0 8.24278C0 7.59776 0.502526 7.06029 1.11268 7.06029C1.72283 7.02444 2.22525 7.5619 2.22525 8.24278Z" fill="#070707"/>
<path d="M58.1413 8.24321C58.1413 8.99579 57.5671 9.64081 56.8134 9.64081C56.0955 9.64081 55.4854 9.03164 55.4854 8.24321C55.4854 7.49073 56.0596 6.8457 56.8134 6.8457C57.5671 6.8457 58.1413 7.49073 58.1413 8.24321Z" fill="#070707"/>
<path d="M24.3327 8.24338C24.3327 9.0317 23.7226 9.67673 23.0047 9.67673C22.251 9.67673 21.6768 9.0317 21.6768 8.24338C21.6768 7.45505 22.2869 6.81002 23.0047 6.81002C23.7226 6.77417 24.3327 7.41919 24.3327 8.24338Z" fill="#070707"/>
<path d="M19.9197 8.24314C19.9197 9.38978 18.9865 10.3573 17.8739 10.3573C16.7612 10.3573 15.8281 9.42563 15.8281 8.24314C15.8281 7.09639 16.7612 6.12891 17.8739 6.12891C18.9865 6.12891 19.9197 7.06054 19.9197 8.24314Z" fill="#070707"/>
</svg>
