<svg width="14" height="14" viewBox="0 0 14 14" fill="#9BA1A0" xmlns="http://www.w3.org/2000/svg">
<g clip-path="url(#clip0_435_12)">
<path d="M13.9931 7.01196C13.9931 7.98794 13.9663 8.96839 13.9976 9.94437C14.0648 11.8202 12.7122 13.3872 10.9251 13.8348C10.5757 13.9244 10.204 13.9781 9.84566 13.9826C7.95109 13.996 6.05652 14.0139 4.16194 13.9826C2.58089 13.9557 1.33576 13.2842 0.493723 11.9187C0.171242 11.3949 0.0100015 10.8129 0.0100015 10.1951C0.00552256 8.06852 -0.0123931 5.94197 0.0144803 3.81989C0.0323959 2.43203 0.726625 1.40681 1.8777 0.672587C2.59433 0.215937 3.38709 0.00999713 4.2336 0.00999713C6.08339 0.00552017 7.93317 -0.0123877 9.78296 0.014474C11.4133 0.0368588 12.7032 0.717356 13.5408 2.14998C13.8408 2.66483 13.9931 3.23341 13.9931 3.8378C13.9886 4.89436 13.9931 5.9554 13.9931 7.01196ZM1.04015 7.00301C1.04015 8.02375 1.04015 9.04898 1.04015 10.0697C1.04015 10.4771 1.11629 10.8711 1.30888 11.2337C1.92697 12.3977 2.9392 12.926 4.21569 12.9439C6.06547 12.9708 7.91974 12.9574 9.76952 12.9439C10.0875 12.9439 10.41 12.8902 10.719 12.8096C11.9507 12.4783 12.9988 11.4128 12.963 9.85035C12.9182 7.88049 12.954 5.91063 12.954 3.94077C12.954 3.5065 12.8734 3.09462 12.6629 2.71408C12.0314 1.58141 11.0236 1.06656 9.76952 1.04865C7.92422 1.02179 6.08339 1.03074 4.23808 1.04865C3.87081 1.05313 3.49458 1.12028 3.14075 1.22773C1.93593 1.59932 0.986401 2.66931 1.03567 4.11089C1.06702 5.07791 1.04015 6.04046 1.04015 7.00301Z"/>
<path d="M6.98671 3.73243C8.79807 3.72792 10.2667 5.19431 10.2667 6.99909C10.2623 8.79485 8.79807 10.2612 7.00452 10.2657C5.19761 10.2703 3.7334 8.80838 3.7334 6.99458C3.7334 5.19431 5.18426 3.73694 6.98671 3.73243ZM6.98671 4.77921C5.76728 4.78372 4.76146 5.78988 4.76591 7.0036C4.77036 8.21732 5.77173 9.21446 7.00007 9.21897C8.22395 9.21897 9.22977 8.22183 9.23422 7.00811C9.22977 5.77635 8.2195 4.77469 6.98671 4.77921Z"/>
<path d="M11.1998 3.26018C11.2058 3.50719 10.9951 3.72513 10.7453 3.73385C10.4894 3.74257 10.2696 3.53334 10.2666 3.27471C10.2636 3.02189 10.4653 2.80976 10.7152 2.80104C10.971 2.79232 11.1938 3.00446 11.1998 3.26018Z"/>
</g>
<defs>
<clipPath id="clip0_435_12">
<rect width="14" height="14" fill="white"/>
</clipPath>
</defs>
</svg>
