<svg width="100" height="56" viewBox="0 0 100 56" fill="none" xmlns="http://www.w3.org/2000/svg">
<mask id="mask0_528_111" style="mask-type:luminance" maskUnits="userSpaceOnUse" x="0" y="0" width="100" height="56">
<path d="M100 0H0V55.3846H100V0Z" fill="white"/>
</mask>
<g mask="url(#mask0_528_111)">
<path d="M14.981 10.5176L20.4257 10.5829V10.6482L11.0213 19.7248C18.5448 23.5121 20.5246 29.6502 21.4485 34.6457H17.4229C16.9939 31.8705 15.3769 24.7529 8.28244 22.5327L4.22371 26.6139V34.4825C4.22371 34.5804 4.15772 34.6457 4.05873 34.6457H0.164988C0.0659956 34.6457 0 34.5804 0 34.4825V6.53434C0 6.43639 0.0659956 6.37109 0.164988 6.37109H4.05873C4.15772 6.37109 4.22371 6.43639 4.22371 6.53434V11.9215V18.9085V20.4104" fill="#9BA1A0"/>
<path d="M22.3086 19.4952C23.8595 13.1612 28.3472 10.1574 35.6727 10.4513V10.7451V11.0716V11.6593V13.9774V14.3039C35.3097 14.3039 34.8807 14.3039 34.4847 14.3039C29.964 14.4018 27.1592 16.3608 26.2353 20.5074L26.2683 24.1314V34.514C26.2683 34.5793 26.2023 34.6446 26.1364 34.6446H22.4736C22.3746 34.6446 22.3416 34.6119 22.3416 34.514" fill="#9BA1A0"/>
<path d="M73.1246 11.5371H73.5446C77.4221 11.5371 80.6532 13.2772 83.2705 16.7897C84.6275 18.8521 85.3061 20.9788 85.3061 23.138V23.8147C85.3061 27.6816 83.432 30.9685 79.6838 33.6432C77.6482 34.8032 75.6772 35.3833 73.8031 35.3833H72.8015C69.861 35.3833 67.0499 34.0298 64.368 31.3552C62.4293 28.9061 61.46 26.3604 61.46 23.6858V23.3635C61.46 19.561 63.1402 16.3707 66.4683 13.7928C68.6008 12.2783 70.8304 11.5371 73.1246 11.5371Z" fill="#070707"/>
<path d="M46.9703 11.5371H47.3903C51.2678 11.5371 54.4989 13.2772 57.1162 16.7897C58.4732 18.8521 59.1518 20.9788 59.1518 23.138V23.8147C59.1518 27.6816 57.2777 30.9685 53.5295 33.6432C51.4939 34.8032 49.5229 35.3833 47.6488 35.3833H46.6472C43.7067 35.3833 40.8956 34.0298 38.2137 31.3552C36.275 28.9061 35.3057 26.3604 35.3057 23.6858V23.3635C35.3057 19.561 36.9859 16.3707 40.314 13.7928C42.4466 12.2783 44.6761 11.5371 46.9703 11.5371Z" fill="#070707"/>
<path d="M73.1726 13.8418H73.5113C76.6383 13.8418 79.244 15.2451 81.3547 18.0777C82.4491 19.741 82.9964 21.4561 82.9964 23.1973V23.743C82.9964 26.8615 81.485 29.5123 78.4623 31.6693C76.8206 32.6048 75.2311 33.0726 73.7197 33.0726H72.912C70.5407 33.0726 68.2737 31.9811 66.1108 29.8241C64.5474 27.8491 63.7656 25.796 63.7656 23.6391V23.3792C63.7656 20.3127 65.1206 17.7399 67.8046 15.6609C69.5244 14.4395 71.3224 13.8418 73.1726 13.8418Z" fill="#9BA1A0"/>
<path d="M47.0192 13.8418H47.358C50.485 13.8418 53.0907 15.2451 55.2014 18.0777C56.2958 19.741 56.8431 21.4561 56.8431 23.1973V23.743C56.8431 26.8615 55.3317 29.5123 52.309 31.6693C50.6673 32.6048 49.0778 33.0726 47.5664 33.0726H46.7587C44.3873 33.0726 42.1204 31.9811 39.9575 29.8241C38.3941 27.8491 37.6123 25.796 37.6123 23.6391V23.3792C37.6123 20.3127 38.9673 17.7399 41.6513 15.6609C43.3711 14.4395 45.1691 13.8418 47.0192 13.8418Z" fill="#9BA1A0"/>
<path d="M98.9575 34.972C97.4061 34.972 93.084 35.0373 89.7841 32.262C87.2432 30.1399 86.4513 27.2667 86.1543 25.928C86.1543 24.4915 86.1543 23.512 86.1543 23.1855C86.1543 21.9448 86.1543 20.3776 86.1543 18.7452V9.47266H86.2863H89.9491H90.081V14.3374H98.9575V18.2228H90.081V21.2918L90.114 24.9486C90.9064 28.9318 93.7433 31.0541 98.2641 31.1846C98.5943 31.1846 98.9244 31.1846 98.9244 31.1846" fill="#9BA1A0"/>
<path d="M46.6149 47.8696C46.6149 50.808 45.8559 53.1589 44.932 53.1589C44.008 53.1589 43.249 50.7755 43.249 47.8696C43.249 44.9311 44.008 42.5804 44.932 42.5804C45.8559 42.5477 46.6149 44.9311 46.6149 47.8696Z" fill="#070707"/>
<path d="M62.2906 47.7736C62.2906 50.81 61.4327 53.2913 60.3767 53.2913C59.3208 53.2913 58.4629 50.81 58.4629 47.7736C58.4629 44.7372 59.3208 42.2559 60.3767 42.2559C61.4327 42.2559 62.2906 44.7046 62.2906 47.7736Z" fill="#070707"/>
<path d="M83.5104 47.7718C83.5104 50.9388 82.6524 53.5181 81.5965 53.5181C80.5405 53.5181 79.6826 50.9388 79.6826 47.7718C79.6826 44.6048 80.5405 42.0254 81.5965 42.0254C82.6524 42.0254 83.5104 44.6048 83.5104 47.7718Z" fill="#070707"/>
<path d="M78.0305 47.7058C78.0305 51.6563 76.0506 54.8233 73.5759 54.8233C71.101 54.8233 69.1211 51.6237 69.1211 47.7058C69.1211 43.7552 71.101 40.5881 73.5759 40.5881C76.0506 40.5555 78.0305 43.7552 78.0305 47.7058Z" fill="#070707"/>
<path d="M67.6393 47.7721C67.6393 50.0575 66.7813 51.8858 65.7254 51.8858C64.6694 51.8858 63.8115 50.0575 63.8115 47.7721C63.8115 45.4866 64.6694 43.6582 65.7254 43.6582C66.7813 43.6582 67.6393 45.5192 67.6393 47.7721Z" fill="#070707"/>
<path d="M41.4048 47.8727C41.4048 52.0192 40.4809 55.3821 39.3259 55.3821C38.171 55.3821 37.2471 52.0192 37.2471 47.8727C37.2471 43.7262 38.171 40.3633 39.3259 40.3633C40.4809 40.3633 41.4048 43.7262 41.4048 47.8727Z" fill="#070707"/>
<path d="M35.8916 47.87C35.8916 48.4577 35.4296 48.9474 34.8687 48.9474C34.3077 48.9474 33.8457 48.4577 33.8457 47.87C33.8457 47.2823 34.3077 46.7926 34.8687 46.7926C35.4296 46.7599 35.8916 47.2496 35.8916 47.87Z" fill="#070707"/>
<path d="M87.3012 47.869C87.3012 48.5547 86.7733 49.1424 86.0803 49.1424C85.4203 49.1424 84.8594 48.5874 84.8594 47.869C84.8594 47.1834 85.3873 46.5957 86.0803 46.5957C86.7733 46.5957 87.3012 47.1834 87.3012 47.869Z" fill="#070707"/>
<path d="M56.2162 47.8698C56.2162 48.5881 55.6553 49.1758 54.9953 49.1758C54.3024 49.1758 53.7744 48.5881 53.7744 47.8698C53.7744 47.1515 54.3354 46.5638 54.9953 46.5638C55.6553 46.5311 56.2162 47.1188 56.2162 47.8698Z" fill="#070707"/>
<path d="M52.1602 47.8697C52.1602 48.9145 51.3022 49.796 50.2793 49.796C49.2563 49.796 48.3984 48.9471 48.3984 47.8697C48.3984 46.8249 49.2563 45.9434 50.2793 45.9434C51.3022 45.9434 52.1602 46.7922 52.1602 47.8697Z" fill="#070707"/>
<path d="M12.5664 2.093H10.873V6.74001H10.1819V2.093H8.49219V1.52734H12.5664V2.093ZM17.3968 6.74001H16.6985V4.33058H14.0426V6.74001H13.348V1.52734H14.0426V3.7685H16.6985V1.52734H17.3968V6.74001ZM21.6085 4.33058H19.3254V6.17792H21.9776V6.74001H18.6306V1.52734H21.9415V2.093H19.3254V3.7685H21.6085V4.33058Z" fill="#9BA1A0"/>
</g>
</svg>
