<svg width="138" height="72" viewBox="0 0 138 72" fill="none" xmlns="http://www.w3.org/2000/svg">
<mask id="mask0_204_1862" style="mask-type:luminance" maskUnits="userSpaceOnUse" x="0" y="0" width="138" height="72">
<path d="M138 0H0V72H138V0Z" fill="white"/>
</mask>
<g mask="url(#mask0_204_1862)">
<path d="M19.4753 13.6776L26.5534 13.7625V13.8473L14.3277 25.647C24.1082 30.5704 26.682 38.55 27.8831 45.0441H22.6497C22.092 41.4363 19.99 32.1834 10.7672 29.2972L5.49083 34.6027V44.8319C5.49083 44.9591 5.40504 45.0441 5.27635 45.0441H0.214485C0.0857942 45.0441 0 44.9591 0 44.8319V8.49933C0 8.37199 0.0857942 8.28711 0.214485 8.28711H5.27635C5.40504 8.28711 5.49083 8.37199 5.49083 8.49933V15.5026V24.5858V26.5382" fill="#9BA1A0"/>
<path d="M31.2305 25.349C33.2467 17.1148 39.0806 13.2099 48.6038 13.5919V13.9739V14.3983V15.1623V18.1759V18.6003C48.1319 18.6003 47.5742 18.6003 47.0595 18.6003C41.1825 18.7276 37.5363 21.2744 36.3352 26.6648L36.3781 31.3761V44.8735C36.3781 44.9583 36.2923 45.0433 36.2066 45.0433H31.4449C31.3163 45.0433 31.2734 45.0008 31.2734 44.8735" fill="#9BA1A0"/>
<path d="M101.752 13.6348H102.309C107.457 13.6348 111.746 15.9267 115.221 20.5532C117.023 23.2696 117.924 26.0709 117.924 28.9148V29.8061C117.924 34.8994 115.436 39.2287 110.46 42.7517C107.757 44.2796 105.14 45.0436 102.652 45.0436H101.323C97.4188 45.0436 93.6869 43.2609 90.1263 39.7381C87.5526 36.5123 86.2656 33.1592 86.2656 29.6363V29.2118C86.2656 24.2034 88.4963 20.0013 92.9147 16.6058C95.7458 14.611 98.7058 13.6348 101.752 13.6348Z" fill="#070707"/>
<path d="M66.8579 13.6348H67.4156C72.5633 13.6348 76.8529 15.9267 80.3276 20.5532C82.1292 23.2696 83.0301 26.0709 83.0301 28.9148V29.8061C83.0301 34.8994 80.5421 39.2287 75.566 42.7517C72.8635 44.2796 70.2468 45.0436 67.7587 45.0436H66.429C62.5253 45.0436 58.7933 43.2609 55.2328 39.7381C52.659 36.5123 51.3721 33.1592 51.3721 29.6363V29.2118C51.3721 24.2034 53.6027 20.0013 58.0211 16.6058C60.8523 14.611 63.8122 13.6348 66.8579 13.6348Z" fill="#070707"/>
<path d="M138 45.4695C135.983 45.4695 130.364 45.5544 126.074 41.9465C122.771 39.1877 121.742 35.4525 121.355 33.7123C121.355 31.8448 121.355 30.5714 121.355 30.147C121.355 28.5341 121.355 26.4968 121.355 24.3746V12.3203H121.527H126.289H126.46V18.6445H138V23.6955H126.46V27.6852L126.503 32.439C127.533 37.6172 131.221 40.3761 137.098 40.5459C137.527 40.5459 137.957 40.5459 137.957 40.5459" fill="#9BA1A0"/>
<path d="M66.7037 62.2357C66.7037 66.0557 65.7171 69.1118 64.516 69.1118C63.3148 69.1118 62.3281 66.0134 62.3281 62.2357C62.3281 58.4158 63.3148 55.3598 64.516 55.3598C65.7171 55.3173 66.7037 58.4158 66.7037 62.2357Z" fill="#070707"/>
<path d="M87.0824 62.1086C87.0824 66.056 85.9672 69.2817 84.5944 69.2817C83.2217 69.2817 82.1064 66.056 82.1064 62.1086C82.1064 58.1612 83.2217 54.9355 84.5944 54.9355C85.9672 54.9355 87.0824 58.1189 87.0824 62.1086Z" fill="#070707"/>
<path d="M114.666 62.107C114.666 66.2242 113.55 69.5773 112.178 69.5773C110.805 69.5773 109.689 66.2242 109.689 62.107C109.689 57.9899 110.805 54.6367 112.178 54.6367C113.55 54.6367 114.666 57.9899 114.666 62.107Z" fill="#070707"/>
<path d="M107.543 62.0228C107.543 67.1585 104.969 71.2756 101.752 71.2756C98.5348 71.2756 95.9609 67.1161 95.9609 62.0228C95.9609 56.887 98.5348 52.7699 101.752 52.7699C104.969 52.7274 107.543 56.887 107.543 62.0228Z" fill="#070707"/>
<path d="M94.0337 62.1078C94.0337 65.0788 92.9183 67.4557 91.5457 67.4557C90.1729 67.4557 89.0576 65.0788 89.0576 62.1078C89.0576 59.1366 90.1729 56.7598 91.5457 56.7598C92.9183 56.7598 94.0337 59.1791 94.0337 62.1078Z" fill="#070707"/>
<path d="M59.9295 62.2369C59.9295 67.6274 58.7284 71.9991 57.2269 71.9991C55.7255 71.9991 54.5244 67.6274 54.5244 62.2369C54.5244 56.8464 55.7255 52.4746 57.2269 52.4746C58.7284 52.4746 59.9295 56.8464 59.9295 62.2369Z" fill="#070707"/>
<path d="M52.7631 62.2347C52.7631 62.9987 52.1626 63.6353 51.4334 63.6353C50.7041 63.6353 50.1035 62.9987 50.1035 62.2347C50.1035 61.4707 50.7041 60.834 51.4334 60.834C52.1626 60.7916 52.7631 61.4282 52.7631 62.2347Z" fill="#070707"/>
<path d="M119.596 62.2354C119.596 63.1268 118.91 63.8908 118.009 63.8908C117.151 63.8908 116.422 63.1693 116.422 62.2354C116.422 61.3441 117.108 60.5801 118.009 60.5801C118.91 60.5801 119.596 61.3441 119.596 62.2354Z" fill="#070707"/>
<path d="M79.1861 62.2366C79.1861 63.1703 78.4568 63.9344 77.5988 63.9344C76.698 63.9344 76.0117 63.1703 76.0117 62.2366C76.0117 61.3028 76.741 60.5388 77.5988 60.5388C78.4568 60.4963 79.1861 61.2604 79.1861 62.2366Z" fill="#070707"/>
<path d="M73.9117 62.2347C73.9117 63.5929 72.7964 64.7389 71.4666 64.7389C70.1367 64.7389 69.0215 63.6354 69.0215 62.2347C69.0215 60.8764 70.1367 59.7305 71.4666 59.7305C72.7964 59.7305 73.9117 60.834 73.9117 62.2347Z" fill="#070707"/>
<path d="M16.3375 2.72559H14.1361V8.7667H13.2377V2.72559H11.041V1.99023H16.3375V2.72559ZM22.617 8.7667H21.7092V5.63444H18.2566V8.7667H17.3535V1.99023H18.2566V4.90374H21.7092V1.99023H22.617V8.7667ZM28.0922 5.63444H25.1242V8.03599H28.572V8.7667H24.221V1.99023H28.5251V2.72559H25.1242V4.90374H28.0922V5.63444Z" fill="#9BA1A0"/>
</g>
</svg>
