<svg width="70" height="60" viewBox="0 0 70 60" fill="none" xmlns="http://www.w3.org/2000/svg">
<mask id="mask0_336_945" style="mask-type:luminance" maskUnits="userSpaceOnUse" x="0" y="0" width="70" height="60">
<path d="M70 0H0V60H70V0Z" fill="white"/>
</mask>
<g mask="url(#mask0_336_945)">
<path d="M17.164 1H17.71C22.7506 1 26.9512 3.2621 30.3537 7.82833C32.1178 10.5094 33 13.2743 33 16.0811V16.9608C33 21.9878 30.5637 26.2608 25.691 29.7379C23.0447 31.2459 20.4824 32 18.046 32H16.7438C12.9213 32 9.26697 30.2405 5.78046 26.7635C3.26019 23.5797 2 20.2702 2 16.7933V16.3743C2 11.4311 4.18429 7.2837 8.51085 3.93235C11.2411 1.96352 14.1395 1 17.164 1ZM6.95659 16.2067V16.7514C6.95659 20.4378 8.76289 23.4122 12.3333 25.6744C13.9715 26.5541 15.5257 26.973 16.9959 26.973H17.8781C21.0704 26.973 23.7588 25.5067 26.0271 22.5744C27.3292 20.6891 27.9594 18.7621 27.9594 16.7933V16.0811C27.9594 12.1851 25.901 9.08512 21.8265 6.78099C20.2724 6.19457 18.8861 5.9013 17.626 5.9013H17.374C14.6856 5.9013 12.2913 6.90673 10.1911 8.87568C8.00678 11.1378 6.95659 13.5675 6.95659 16.2067Z" fill="#070707"/>
<path d="M51.8046 0.681641H52.3507C57.3913 0.681641 61.5918 2.94374 64.9943 7.50997C66.7584 10.1911 67.6406 12.9559 67.6406 15.7628V16.6424C67.6406 21.6695 65.2043 25.9424 60.3316 29.4195C57.6853 30.9276 55.123 31.6816 52.6867 31.6816H51.3846C47.562 31.6816 43.9076 29.9221 40.4211 26.4452C37.9008 23.2613 36.6406 19.9519 36.6406 16.4749V16.0559C36.6406 11.1127 38.8249 6.96534 43.1515 3.61399C45.9238 1.64516 48.8222 0.681641 51.8046 0.681641ZM41.6392 15.8884V16.433C41.6392 20.1194 43.4455 23.0938 47.016 25.356C48.6542 26.2357 50.2083 26.6546 51.6785 26.6546H52.5607C55.753 26.6546 58.4414 25.1884 60.7097 22.256C62.0118 20.3708 62.642 18.4437 62.642 16.4749V15.7628C62.642 11.8668 60.5837 8.76677 56.5091 6.46263C54.955 5.87621 53.5687 5.58294 52.3087 5.58294H52.0566C49.3683 5.58294 46.974 6.58837 44.8737 8.55732C42.6894 10.8194 41.6392 13.2492 41.6392 15.8884Z" fill="#070707"/>
<path d="M17.2209 49.4442C17.2209 53.277 16.2414 56.3433 15.049 56.3433C13.8564 56.3433 12.877 53.2345 12.877 49.4442C12.877 45.6115 13.8564 42.5454 15.049 42.5454C16.2414 42.5027 17.2209 45.6115 17.2209 49.4442Z" fill="#070707"/>
<path d="M37.4516 49.3181C37.4516 53.2787 36.3445 56.5151 34.9816 56.5151C33.6189 56.5151 32.5117 53.2787 32.5117 49.3181C32.5117 45.3576 33.6189 42.1211 34.9816 42.1211C36.3445 42.1211 37.4516 45.3151 37.4516 49.3181Z" fill="#070707"/>
<path d="M64.8346 49.3156C64.8346 53.4465 63.7273 56.8108 62.3646 56.8108C61.0017 56.8108 59.8945 53.4465 59.8945 49.3156C59.8945 45.1847 61.0017 41.8203 62.3646 41.8203C63.7273 41.8203 64.8346 45.1847 64.8346 49.3156Z" fill="#070707"/>
<path d="M57.7639 49.2314C57.7639 54.3842 55.2087 58.5151 52.0149 58.5151C48.8209 58.5151 46.2656 54.3418 46.2656 49.2314C46.2656 44.0785 48.8209 39.9476 52.0149 39.9476C55.2087 39.905 57.7639 44.0785 57.7639 49.2314Z" fill="#070707"/>
<path d="M44.3522 49.317C44.3522 52.298 43.2448 54.6828 41.8821 54.6828C40.5193 54.6828 39.4121 52.298 39.4121 49.317C39.4121 46.336 40.5193 43.9512 41.8821 43.9512C43.2448 43.9512 44.3522 46.3786 44.3522 49.317Z" fill="#070707"/>
<path d="M10.4948 49.4453C10.4948 54.8537 9.30238 59.2401 7.81185 59.2401C6.32131 59.2401 5.12891 54.8537 5.12891 49.4453C5.12891 44.0368 6.32131 39.6504 7.81185 39.6504C9.30238 39.6504 10.4948 44.0368 10.4948 49.4453Z" fill="#070707"/>
<path d="M3.38056 49.4444C3.38056 50.211 2.78443 50.8498 2.06046 50.8498C1.3365 50.8498 0.740234 50.211 0.740234 49.4444C0.740234 48.6779 1.3365 48.0391 2.06046 48.0391C2.78443 47.9965 3.38056 48.6353 3.38056 49.4444Z" fill="#070707"/>
<path d="M69.7295 49.444C69.7295 50.3384 69.0481 51.105 68.1539 51.105C67.3021 51.105 66.5781 50.381 66.5781 49.444C66.5781 48.5498 67.2595 47.7832 68.1539 47.7832C69.0481 47.7832 69.7295 48.5498 69.7295 49.444Z" fill="#070707"/>
<path d="M29.6123 49.4454C29.6123 50.3823 28.8883 51.1488 28.0366 51.1488C27.1423 51.1488 26.4609 50.3823 26.4609 49.4454C26.4609 48.5085 27.1849 47.7419 28.0366 47.7419C28.8883 47.6993 29.6123 48.4659 29.6123 49.4454Z" fill="#070707"/>
<path d="M24.3763 49.4443C24.3763 50.807 23.269 51.9568 21.9489 51.9568C20.6287 51.9568 19.5215 50.8496 19.5215 49.4443C19.5215 48.0814 20.6287 46.9316 21.9489 46.9316C23.269 46.9316 24.3763 48.0388 24.3763 49.4443Z" fill="#070707"/>
</g>
</svg>
