<svg width="131" height="13" viewBox="0 0 131 13" fill="none" xmlns="http://www.w3.org/2000/svg">
<path d="M3.63636 9.95455V2.45455H4.90909V9.95455H3.63636ZM0.522727 6.84091V5.56818H8.02273V6.84091H0.522727ZM14.8423 0.363636V12H13.4332V1.84091H13.3651L10.5241 3.72727V2.29545L13.4332 0.363636H14.8423ZM18.5014 12.0909C18.2211 12.0909 17.9806 11.9905 17.7798 11.7898C17.5791 11.589 17.4787 11.3485 17.4787 11.0682C17.4787 10.7879 17.5791 10.5473 17.7798 10.3466C17.9806 10.1458 18.2211 10.0455 18.5014 10.0455C18.7817 10.0455 19.0223 10.1458 19.223 10.3466C19.4238 10.5473 19.5241 10.7879 19.5241 11.0682C19.5241 11.2538 19.4768 11.4242 19.3821 11.5795C19.2912 11.7348 19.1681 11.8598 19.0128 11.9545C18.8613 12.0455 18.6908 12.0909 18.5014 12.0909ZM25.402 12.1591C24.652 12.1591 23.9834 12.0303 23.3963 11.7727C22.813 11.5152 22.349 11.1572 22.0043 10.6989C21.6634 10.2367 21.4777 9.70076 21.4474 9.09091H22.8793C22.9096 9.46591 23.0384 9.78977 23.2656 10.0625C23.4929 10.3314 23.7902 10.5398 24.1577 10.6875C24.5251 10.8352 24.9323 10.9091 25.3793 10.9091C25.8793 10.9091 26.3224 10.822 26.7088 10.6477C27.0952 10.4735 27.3982 10.2311 27.6179 9.92045C27.8376 9.60985 27.9474 9.25 27.9474 8.84091C27.9474 8.41288 27.8414 8.03598 27.6293 7.71023C27.4171 7.38068 27.1065 7.12311 26.6974 6.9375C26.2884 6.75189 25.7884 6.65909 25.1974 6.65909H24.2656V5.40909H25.1974C25.6596 5.40909 26.0649 5.32576 26.4134 5.15909C26.7656 4.99242 27.0402 4.75758 27.2372 4.45455C27.438 4.15152 27.5384 3.79545 27.5384 3.38636C27.5384 2.99242 27.4512 2.64962 27.277 2.35795C27.1027 2.06629 26.8565 1.83901 26.5384 1.67614C26.224 1.51326 25.8527 1.43182 25.4247 1.43182C25.0232 1.43182 24.6444 1.50568 24.2884 1.65341C23.9361 1.79735 23.6482 2.00758 23.4247 2.28409C23.2012 2.55682 23.08 2.88636 23.0611 3.27273H21.6974C21.7202 2.66288 21.9039 2.12879 22.2486 1.67045C22.5933 1.20833 23.044 0.848484 23.6009 0.590909C24.1615 0.333333 24.777 0.204545 25.4474 0.204545C26.1671 0.204545 26.7846 0.350378 27.2997 0.642045C27.8149 0.929924 28.2107 1.31061 28.4872 1.78409C28.7637 2.25758 28.902 2.76894 28.902 3.31818C28.902 3.97348 28.7296 4.5322 28.3849 4.99432C28.044 5.45644 27.58 5.77652 26.9929 5.95455V6.04545C27.7277 6.16667 28.3016 6.47917 28.7145 6.98295C29.1274 7.48295 29.3338 8.10227 29.3338 8.84091C29.3338 9.47348 29.1615 10.0417 28.8168 10.5455C28.4759 11.0455 28.0099 11.4394 27.419 11.7273C26.8281 12.0152 26.1558 12.1591 25.402 12.1591ZM31.6577 12V10.9773L35.4986 6.77273C35.9493 6.2803 36.3205 5.85227 36.6122 5.48864C36.9039 5.12121 37.1198 4.77652 37.2599 4.45455C37.4039 4.12879 37.4759 3.78788 37.4759 3.43182C37.4759 3.02273 37.3774 2.66856 37.1804 2.36932C36.9872 2.07008 36.7221 1.83901 36.3849 1.67614C36.0478 1.51326 35.669 1.43182 35.2486 1.43182C34.8016 1.43182 34.4115 1.52462 34.0781 1.71023C33.7486 1.89205 33.4929 2.14773 33.3111 2.47727C33.133 2.80682 33.044 3.19318 33.044 3.63636H31.7031C31.7031 2.95455 31.8603 2.35606 32.1747 1.84091C32.4891 1.32576 32.9171 0.924242 33.4588 0.636363C34.0043 0.348484 34.616 0.204545 35.294 0.204545C35.9759 0.204545 36.58 0.348484 37.1065 0.636363C37.633 0.924242 38.0459 1.3125 38.3452 1.80114C38.6444 2.28977 38.794 2.83333 38.794 3.43182C38.794 3.85985 38.7164 4.27841 38.5611 4.6875C38.4096 5.0928 38.1444 5.54545 37.7656 6.04545C37.3906 6.54167 36.8698 7.14773 36.2031 7.86364L33.5895 10.6591V10.75H38.9986V12H31.6577ZM45.277 12.1591C44.527 12.1591 43.8584 12.0303 43.2713 11.7727C42.688 11.5152 42.224 11.1572 41.8793 10.6989C41.5384 10.2367 41.3527 9.70076 41.3224 9.09091H42.7543C42.7846 9.46591 42.9134 9.78977 43.1406 10.0625C43.3679 10.3314 43.6652 10.5398 44.0327 10.6875C44.4001 10.8352 44.8073 10.9091 45.2543 10.9091C45.7543 10.9091 46.1974 10.822 46.5838 10.6477C46.9702 10.4735 47.2732 10.2311 47.4929 9.92045C47.7126 9.60985 47.8224 9.25 47.8224 8.84091C47.8224 8.41288 47.7164 8.03598 47.5043 7.71023C47.2921 7.38068 46.9815 7.12311 46.5724 6.9375C46.1634 6.75189 45.6634 6.65909 45.0724 6.65909H44.1406V5.40909H45.0724C45.5346 5.40909 45.9399 5.32576 46.2884 5.15909C46.6406 4.99242 46.9152 4.75758 47.1122 4.45455C47.313 4.15152 47.4134 3.79545 47.4134 3.38636C47.4134 2.99242 47.3262 2.64962 47.152 2.35795C46.9777 2.06629 46.7315 1.83901 46.4134 1.67614C46.099 1.51326 45.7277 1.43182 45.2997 1.43182C44.8982 1.43182 44.5194 1.50568 44.1634 1.65341C43.8111 1.79735 43.5232 2.00758 43.2997 2.28409C43.0762 2.55682 42.955 2.88636 42.9361 3.27273H41.5724C41.5952 2.66288 41.7789 2.12879 42.1236 1.67045C42.4683 1.20833 42.919 0.848484 43.4759 0.590909C44.0365 0.333333 44.652 0.204545 45.3224 0.204545C46.0421 0.204545 46.6596 0.350378 47.1747 0.642045C47.6899 0.929924 48.0857 1.31061 48.3622 1.78409C48.6387 2.25758 48.777 2.76894 48.777 3.31818C48.777 3.97348 48.6046 4.5322 48.2599 4.99432C47.919 5.45644 47.455 5.77652 46.8679 5.95455V6.04545C47.6027 6.16667 48.1766 6.47917 48.5895 6.98295C49.0024 7.48295 49.2088 8.10227 49.2088 8.84091C49.2088 9.47348 49.0365 10.0417 48.6918 10.5455C48.3509 11.0455 47.8849 11.4394 47.294 11.7273C46.7031 12.0152 46.0308 12.1591 45.277 12.1591ZM52.1733 12.0909C51.893 12.0909 51.6525 11.9905 51.4517 11.7898C51.2509 11.589 51.1506 11.3485 51.1506 11.0682C51.1506 10.7879 51.2509 10.5473 51.4517 10.3466C51.6525 10.1458 51.893 10.0455 52.1733 10.0455C52.4536 10.0455 52.6941 10.1458 52.8949 10.3466C53.0956 10.5473 53.196 10.7879 53.196 11.0682C53.196 11.2538 53.1487 11.4242 53.054 11.5795C52.9631 11.7348 52.84 11.8598 52.6847 11.9545C52.5331 12.0455 52.3627 12.0909 52.1733 12.0909ZM59.0739 12.1591C58.3239 12.1591 57.6553 12.0303 57.0682 11.7727C56.4848 11.5152 56.0208 11.1572 55.6761 10.6989C55.3352 10.2367 55.1496 9.70076 55.1193 9.09091H56.5511C56.5814 9.46591 56.7102 9.78977 56.9375 10.0625C57.1648 10.3314 57.4621 10.5398 57.8295 10.6875C58.197 10.8352 58.6042 10.9091 59.0511 10.9091C59.5511 10.9091 59.9943 10.822 60.3807 10.6477C60.767 10.4735 61.0701 10.2311 61.2898 9.92045C61.5095 9.60985 61.6193 9.25 61.6193 8.84091C61.6193 8.41288 61.5133 8.03598 61.3011 7.71023C61.089 7.38068 60.7784 7.12311 60.3693 6.9375C59.9602 6.75189 59.4602 6.65909 58.8693 6.65909H57.9375V5.40909H58.8693C59.3314 5.40909 59.7367 5.32576 60.0852 5.15909C60.4375 4.99242 60.7121 4.75758 60.9091 4.45455C61.1098 4.15152 61.2102 3.79545 61.2102 3.38636C61.2102 2.99242 61.1231 2.64962 60.9489 2.35795C60.7746 2.06629 60.5284 1.83901 60.2102 1.67614C59.8958 1.51326 59.5246 1.43182 59.0966 1.43182C58.6951 1.43182 58.3163 1.50568 57.9602 1.65341C57.608 1.79735 57.3201 2.00758 57.0966 2.28409C56.8731 2.55682 56.7519 2.88636 56.733 3.27273H55.3693C55.392 2.66288 55.5758 2.12879 55.9205 1.67045C56.2652 1.20833 56.7159 0.848484 57.2727 0.590909C57.8333 0.333333 58.4489 0.204545 59.1193 0.204545C59.839 0.204545 60.4564 0.350378 60.9716 0.642045C61.4867 0.929924 61.8826 1.31061 62.1591 1.78409C62.4356 2.25758 62.5739 2.76894 62.5739 3.31818C62.5739 3.97348 62.4015 4.5322 62.0568 4.99432C61.7159 5.45644 61.2519 5.77652 60.6648 5.95455V6.04545C61.3996 6.16667 61.9735 6.47917 62.3864 6.98295C62.7992 7.48295 63.0057 8.10227 63.0057 8.84091C63.0057 9.47348 62.8333 10.0417 62.4886 10.5455C62.1477 11.0455 61.6818 11.4394 61.0909 11.7273C60.5 12.0152 59.8277 12.1591 59.0739 12.1591ZM69.0568 12.1591C68.2765 12.1591 67.5871 12.0208 66.9886 11.7443C66.3939 11.464 65.9299 11.0795 65.5966 10.5909C65.2633 10.0985 65.0985 9.53788 65.1023 8.90909C65.0985 8.41667 65.1951 7.96212 65.392 7.54545C65.589 7.125 65.858 6.77462 66.1989 6.49432C66.5436 6.21023 66.928 6.0303 67.3523 5.95455V5.88636C66.7955 5.74242 66.3523 5.42992 66.0227 4.94886C65.6932 4.46401 65.5303 3.91288 65.5341 3.29545C65.5303 2.70455 65.6799 2.17614 65.983 1.71023C66.286 1.24432 66.7027 0.876893 67.233 0.607954C67.767 0.339015 68.375 0.204545 69.0568 0.204545C69.7311 0.204545 70.3333 0.339015 70.8636 0.607954C71.3939 0.876893 71.8106 1.24432 72.1136 1.71023C72.4205 2.17614 72.5758 2.70455 72.5795 3.29545C72.5758 3.91288 72.4072 4.46401 72.0739 4.94886C71.7443 5.42992 71.3068 5.74242 70.7614 5.88636V5.95455C71.1818 6.0303 71.5606 6.21023 71.8977 6.49432C72.2348 6.77462 72.5038 7.125 72.7045 7.54545C72.9053 7.96212 73.0076 8.41667 73.0114 8.90909C73.0076 9.53788 72.8371 10.0985 72.5 10.5909C72.1667 11.0795 71.7027 11.464 71.108 11.7443C70.517 12.0208 69.8333 12.1591 69.0568 12.1591ZM69.0568 10.9091C69.5833 10.9091 70.0379 10.8239 70.4205 10.6534C70.803 10.483 71.0985 10.2424 71.3068 9.93182C71.5152 9.62121 71.6212 9.25758 71.625 8.84091C71.6212 8.40152 71.5076 8.01326 71.2841 7.67614C71.0606 7.33902 70.7557 7.07386 70.3693 6.88068C69.9867 6.6875 69.5492 6.59091 69.0568 6.59091C68.5606 6.59091 68.1174 6.6875 67.7273 6.88068C67.3409 7.07386 67.036 7.33902 66.8125 7.67614C66.5928 8.01326 66.4848 8.40152 66.4886 8.84091C66.4848 9.25758 66.5852 9.62121 66.7898 9.93182C66.9981 10.2424 67.2955 10.483 67.6818 10.6534C68.0682 10.8239 68.5265 10.9091 69.0568 10.9091ZM69.0568 5.38636C69.4735 5.38636 69.8428 5.30303 70.1648 5.13636C70.4905 4.9697 70.7462 4.73674 70.9318 4.4375C71.1174 4.13826 71.2121 3.78788 71.2159 3.38636C71.2121 2.99242 71.1193 2.64962 70.9375 2.35795C70.7557 2.0625 70.5038 1.83523 70.1818 1.67614C69.8598 1.51326 69.4848 1.43182 69.0568 1.43182C68.6212 1.43182 68.2405 1.51326 67.9148 1.67614C67.589 1.83523 67.3371 2.0625 67.1591 2.35795C66.9811 2.64962 66.8939 2.99242 66.8977 3.38636C66.8939 3.78788 66.983 4.13826 67.1648 4.4375C67.3504 4.73674 67.6061 4.9697 67.9318 5.13636C68.2576 5.30303 68.6326 5.38636 69.0568 5.38636ZM79.0526 12.1591C78.5753 12.1515 78.098 12.0606 77.6207 11.8864C77.1435 11.7121 76.7079 11.4186 76.3139 11.0057C75.92 10.589 75.6037 10.0265 75.3651 9.31818C75.1264 8.60606 75.0071 7.71212 75.0071 6.63636C75.0071 5.60606 75.1037 4.69318 75.2969 3.89773C75.4901 3.09848 75.7704 2.42614 76.1378 1.88068C76.5052 1.33144 76.9484 0.914772 77.4673 0.630681C77.9901 0.34659 78.5791 0.204545 79.2344 0.204545C79.8859 0.204545 80.4654 0.335227 80.973 0.596591C81.4844 0.854166 81.901 1.21401 82.223 1.67614C82.545 2.13826 82.7533 2.67045 82.848 3.27273H81.4616C81.3329 2.75 81.0829 2.31629 80.7116 1.97159C80.3404 1.62689 79.848 1.45455 79.2344 1.45455C78.3329 1.45455 77.6226 1.84659 77.1037 2.63068C76.5885 3.41477 76.3291 4.51515 76.3253 5.93182H76.4162C76.6283 5.60985 76.8802 5.33523 77.1719 5.10795C77.4673 4.87689 77.7931 4.69886 78.1491 4.57386C78.5052 4.44886 78.8821 4.38636 79.2798 4.38636C79.9465 4.38636 80.5563 4.55303 81.1094 4.88636C81.6624 5.21591 82.1056 5.67235 82.4389 6.25568C82.7723 6.83523 82.9389 7.5 82.9389 8.25C82.9389 8.9697 82.7779 9.62879 82.456 10.2273C82.134 10.822 81.6813 11.2955 81.098 11.6477C80.5185 11.9962 79.8366 12.1667 79.0526 12.1591ZM79.0526 10.9091C79.5298 10.9091 79.9579 10.7898 80.3366 10.5511C80.7192 10.3125 81.0204 9.99242 81.2401 9.59091C81.4635 9.18939 81.5753 8.74242 81.5753 8.25C81.5753 7.76894 81.4673 7.33144 81.2514 6.9375C81.0393 6.53977 80.7457 6.22348 80.3707 5.98864C79.9995 5.75379 79.5753 5.63636 79.098 5.63636C78.7382 5.63636 78.4029 5.70833 78.0923 5.85227C77.7817 5.99242 77.509 6.18561 77.2741 6.43182C77.0431 6.67803 76.8613 6.96023 76.7287 7.27841C76.5961 7.5928 76.5298 7.92424 76.5298 8.27273C76.5298 8.73485 76.6378 9.16667 76.8537 9.56818C77.0734 9.9697 77.3726 10.2936 77.7514 10.5398C78.134 10.786 78.5677 10.9091 79.0526 10.9091ZM85.6264 12.0909C85.3461 12.0909 85.1056 11.9905 84.9048 11.7898C84.7041 11.589 84.6037 11.3485 84.6037 11.0682C84.6037 10.7879 84.7041 10.5473 84.9048 10.3466C85.1056 10.1458 85.3461 10.0455 85.6264 10.0455C85.9067 10.0455 86.1473 10.1458 86.348 10.3466C86.5488 10.5473 86.6491 10.7879 86.6491 11.0682C86.6491 11.2538 86.6018 11.4242 86.5071 11.5795C86.4162 11.7348 86.2931 11.8598 86.1378 11.9545C85.9863 12.0455 85.8158 12.0909 85.6264 12.0909ZM92.527 12.1591C91.777 12.1591 91.1084 12.0303 90.5213 11.7727C89.938 11.5152 89.474 11.1572 89.1293 10.6989C88.7884 10.2367 88.6027 9.70076 88.5724 9.09091H90.0043C90.0346 9.46591 90.1634 9.78977 90.3906 10.0625C90.6179 10.3314 90.9152 10.5398 91.2827 10.6875C91.6501 10.8352 92.0573 10.9091 92.5043 10.9091C93.0043 10.9091 93.4474 10.822 93.8338 10.6477C94.2202 10.4735 94.5232 10.2311 94.7429 9.92045C94.9626 9.60985 95.0724 9.25 95.0724 8.84091C95.0724 8.41288 94.9664 8.03598 94.7543 7.71023C94.5421 7.38068 94.2315 7.12311 93.8224 6.9375C93.4134 6.75189 92.9134 6.65909 92.3224 6.65909H91.3906V5.40909H92.3224C92.7846 5.40909 93.1899 5.32576 93.5384 5.15909C93.8906 4.99242 94.1652 4.75758 94.3622 4.45455C94.563 4.15152 94.6634 3.79545 94.6634 3.38636C94.6634 2.99242 94.5762 2.64962 94.402 2.35795C94.2277 2.06629 93.9815 1.83901 93.6634 1.67614C93.349 1.51326 92.9777 1.43182 92.5497 1.43182C92.1482 1.43182 91.7694 1.50568 91.4134 1.65341C91.0611 1.79735 90.7732 2.00758 90.5497 2.28409C90.3262 2.55682 90.205 2.88636 90.1861 3.27273H88.8224C88.8452 2.66288 89.0289 2.12879 89.3736 1.67045C89.7183 1.20833 90.169 0.848484 90.7259 0.590909C91.2865 0.333333 91.902 0.204545 92.5724 0.204545C93.2921 0.204545 93.9096 0.350378 94.4247 0.642045C94.9399 0.929924 95.3357 1.31061 95.6122 1.78409C95.8887 2.25758 96.027 2.76894 96.027 3.31818C96.027 3.97348 95.8546 4.5322 95.5099 4.99432C95.169 5.45644 94.705 5.77652 94.1179 5.95455V6.04545C94.8527 6.16667 95.4266 6.47917 95.8395 6.98295C96.2524 7.48295 96.4588 8.10227 96.4588 8.84091C96.4588 9.47348 96.2865 10.0417 95.9418 10.5455C95.6009 11.0455 95.1349 11.4394 94.544 11.7273C93.9531 12.0152 93.2808 12.1591 92.527 12.1591ZM98.7827 12V10.9773L102.624 6.77273C103.074 6.2803 103.446 5.85227 103.737 5.48864C104.029 5.12121 104.245 4.77652 104.385 4.45455C104.529 4.12879 104.601 3.78788 104.601 3.43182C104.601 3.02273 104.502 2.66856 104.305 2.36932C104.112 2.07008 103.847 1.83901 103.51 1.67614C103.173 1.51326 102.794 1.43182 102.374 1.43182C101.927 1.43182 101.536 1.52462 101.203 1.71023C100.874 1.89205 100.618 2.14773 100.436 2.47727C100.258 2.80682 100.169 3.19318 100.169 3.63636H98.8281C98.8281 2.95455 98.9853 2.35606 99.2997 1.84091C99.6141 1.32576 100.042 0.924242 100.584 0.636363C101.129 0.348484 101.741 0.204545 102.419 0.204545C103.101 0.204545 103.705 0.348484 104.232 0.636363C104.758 0.924242 105.171 1.3125 105.47 1.80114C105.769 2.28977 105.919 2.83333 105.919 3.43182C105.919 3.85985 105.841 4.27841 105.686 4.6875C105.535 5.0928 105.269 5.54545 104.891 6.04545C104.516 6.54167 103.995 7.14773 103.328 7.86364L100.714 10.6591V10.75H106.124V12H98.7827ZM109.47 12.0909C109.19 12.0909 108.949 11.9905 108.749 11.7898C108.548 11.589 108.447 11.3485 108.447 11.0682C108.447 10.7879 108.548 10.5473 108.749 10.3466C108.949 10.1458 109.19 10.0455 109.47 10.0455C109.75 10.0455 109.991 10.1458 110.192 10.3466C110.393 10.5473 110.493 10.7879 110.493 11.0682C110.493 11.2538 110.446 11.4242 110.351 11.5795C110.26 11.7348 110.137 11.8598 109.982 11.9545C109.83 12.0455 109.66 12.0909 109.47 12.0909ZM116.371 12.1591C115.621 12.1591 114.952 12.0303 114.365 11.7727C113.782 11.5152 113.318 11.1572 112.973 10.6989C112.632 10.2367 112.446 9.70076 112.416 9.09091H113.848C113.878 9.46591 114.007 9.78977 114.234 10.0625C114.462 10.3314 114.759 10.5398 115.126 10.6875C115.494 10.8352 115.901 10.9091 116.348 10.9091C116.848 10.9091 117.291 10.822 117.678 10.6477C118.064 10.4735 118.367 10.2311 118.587 9.92045C118.806 9.60985 118.916 9.25 118.916 8.84091C118.916 8.41288 118.81 8.03598 118.598 7.71023C118.386 7.38068 118.075 7.12311 117.666 6.9375C117.257 6.75189 116.757 6.65909 116.166 6.65909H115.234V5.40909H116.166C116.628 5.40909 117.034 5.32576 117.382 5.15909C117.734 4.99242 118.009 4.75758 118.206 4.45455C118.407 4.15152 118.507 3.79545 118.507 3.38636C118.507 2.99242 118.42 2.64962 118.246 2.35795C118.071 2.06629 117.825 1.83901 117.507 1.67614C117.193 1.51326 116.821 1.43182 116.393 1.43182C115.992 1.43182 115.613 1.50568 115.257 1.65341C114.905 1.79735 114.617 2.00758 114.393 2.28409C114.17 2.55682 114.049 2.88636 114.03 3.27273H112.666C112.689 2.66288 112.873 2.12879 113.217 1.67045C113.562 1.20833 114.013 0.848484 114.57 0.590909C115.13 0.333333 115.746 0.204545 116.416 0.204545C117.136 0.204545 117.753 0.350378 118.268 0.642045C118.784 0.929924 119.179 1.31061 119.456 1.78409C119.732 2.25758 119.871 2.76894 119.871 3.31818C119.871 3.97348 119.698 4.5322 119.354 4.99432C119.013 5.45644 118.549 5.77652 117.962 5.95455V6.04545C118.696 6.16667 119.27 6.47917 119.683 6.98295C120.096 7.48295 120.303 8.10227 120.303 8.84091C120.303 9.47348 120.13 10.0417 119.786 10.5455C119.445 11.0455 118.979 11.4394 118.388 11.7273C117.797 12.0152 117.125 12.1591 116.371 12.1591ZM126.263 12.1591C125.596 12.1591 124.996 12.0265 124.462 11.7614C123.928 11.4962 123.5 11.1326 123.178 10.6705C122.856 10.2083 122.679 9.68182 122.649 9.09091H124.013C124.066 9.61742 124.304 10.053 124.729 10.3977C125.157 10.7386 125.668 10.9091 126.263 10.9091C126.74 10.9091 127.164 10.7973 127.536 10.5739C127.911 10.3504 128.204 10.0436 128.416 9.65341C128.632 9.25947 128.74 8.81439 128.74 8.31818C128.74 7.81061 128.628 7.35795 128.405 6.96023C128.185 6.55871 127.882 6.24242 127.496 6.01136C127.109 5.7803 126.668 5.66288 126.172 5.65909C125.816 5.6553 125.45 5.71023 125.075 5.82386C124.7 5.93371 124.392 6.07576 124.149 6.25L122.831 6.09091L123.536 0.363636H129.581V1.61364H124.717L124.308 5.04545H124.376C124.615 4.85606 124.914 4.69886 125.274 4.57386C125.634 4.44886 126.009 4.38636 126.399 4.38636C127.111 4.38636 127.746 4.55682 128.303 4.89773C128.863 5.23485 129.303 5.69697 129.621 6.28409C129.943 6.87121 130.104 7.54167 130.104 8.29545C130.104 9.03788 129.937 9.70076 129.604 10.2841C129.274 10.8636 128.82 11.322 128.24 11.6591C127.661 11.9924 127.001 12.1591 126.263 12.1591Z" fill="#000000"/>
</svg>
