<svg width="140" height="13" viewBox="0 0 140 13" fill="none" xmlns="http://www.w3.org/2000/svg">
<path d="M3.63636 9.95455V2.45455H4.90909V9.95455H3.63636ZM0.522727 6.84091V5.56818H8.02273V6.84091H0.522727ZM14.4957 12.1591C13.7457 12.1591 13.0772 12.0303 12.4901 11.7727C11.9067 11.5152 11.4427 11.1572 11.098 10.6989C10.7571 10.2367 10.5715 9.70076 10.5412 9.09091H11.973C12.0033 9.46591 12.1321 9.78977 12.3594 10.0625C12.5866 10.3314 12.884 10.5398 13.2514 10.6875C13.6188 10.8352 14.026 10.9091 14.473 10.9091C14.973 10.9091 15.4162 10.822 15.8026 10.6477C16.1889 10.4735 16.492 10.2311 16.7116 9.92045C16.9313 9.60985 17.0412 9.25 17.0412 8.84091C17.0412 8.41288 16.9351 8.03598 16.723 7.71023C16.5109 7.38068 16.2003 7.12311 15.7912 6.9375C15.3821 6.75189 14.8821 6.65909 14.2912 6.65909H13.3594V5.40909H14.2912C14.7533 5.40909 15.1586 5.32576 15.5071 5.15909C15.8594 4.99242 16.134 4.75758 16.331 4.45455C16.5317 4.15152 16.6321 3.79545 16.6321 3.38636C16.6321 2.99242 16.545 2.64962 16.3707 2.35795C16.1965 2.06629 15.9503 1.83901 15.6321 1.67614C15.3177 1.51326 14.9465 1.43182 14.5185 1.43182C14.117 1.43182 13.7382 1.50568 13.3821 1.65341C13.0298 1.79735 12.742 2.00758 12.5185 2.28409C12.295 2.55682 12.1738 2.88636 12.1548 3.27273H10.7912C10.8139 2.66288 10.9976 2.12879 11.3423 1.67045C11.687 1.20833 12.1378 0.848484 12.6946 0.590909C13.2552 0.333333 13.8707 0.204545 14.5412 0.204545C15.2609 0.204545 15.8783 0.350378 16.3935 0.642045C16.9086 0.929924 17.3045 1.31061 17.581 1.78409C17.8575 2.25758 17.9957 2.76894 17.9957 3.31818C17.9957 3.97348 17.8234 4.5322 17.4787 4.99432C17.1378 5.45644 16.6738 5.77652 16.0866 5.95455V6.04545C16.8215 6.16667 17.3954 6.47917 17.8082 6.98295C18.2211 7.48295 18.4276 8.10227 18.4276 8.84091C18.4276 9.47348 18.2552 10.0417 17.9105 10.5455C17.5696 11.0455 17.1037 11.4394 16.5128 11.7273C15.9219 12.0152 15.2495 12.1591 14.4957 12.1591ZM24.4787 12.1591C23.6984 12.1591 23.009 12.0208 22.4105 11.7443C21.8158 11.464 21.3518 11.0795 21.0185 10.5909C20.6851 10.0985 20.5204 9.53788 20.5241 8.90909C20.5204 8.41667 20.617 7.96212 20.8139 7.54545C21.0109 7.125 21.2798 6.77462 21.6207 6.49432C21.9654 6.21023 22.3499 6.0303 22.7741 5.95455V5.88636C22.2173 5.74242 21.7741 5.42992 21.4446 4.94886C21.1151 4.46401 20.9522 3.91288 20.956 3.29545C20.9522 2.70455 21.1018 2.17614 21.4048 1.71023C21.7079 1.24432 22.1245 0.876893 22.6548 0.607954C23.1889 0.339015 23.7969 0.204545 24.4787 0.204545C25.1529 0.204545 25.7552 0.339015 26.2855 0.607954C26.8158 0.876893 27.2325 1.24432 27.5355 1.71023C27.8423 2.17614 27.9976 2.70455 28.0014 3.29545C27.9976 3.91288 27.8291 4.46401 27.4957 4.94886C27.1662 5.42992 26.7287 5.74242 26.1832 5.88636V5.95455C26.6037 6.0303 26.9825 6.21023 27.3196 6.49432C27.6567 6.77462 27.9257 7.125 28.1264 7.54545C28.3272 7.96212 28.4295 8.41667 28.4332 8.90909C28.4295 9.53788 28.259 10.0985 27.9219 10.5909C27.5885 11.0795 27.1245 11.464 26.5298 11.7443C25.9389 12.0208 25.2552 12.1591 24.4787 12.1591ZM24.4787 10.9091C25.0052 10.9091 25.4598 10.8239 25.8423 10.6534C26.2249 10.483 26.5204 10.2424 26.7287 9.93182C26.937 9.62121 27.0431 9.25758 27.0469 8.84091C27.0431 8.40152 26.9295 8.01326 26.706 7.67614C26.4825 7.33902 26.1776 7.07386 25.7912 6.88068C25.4086 6.6875 24.9711 6.59091 24.4787 6.59091C23.9825 6.59091 23.5393 6.6875 23.1491 6.88068C22.7628 7.07386 22.4579 7.33902 22.2344 7.67614C22.0147 8.01326 21.9067 8.40152 21.9105 8.84091C21.9067 9.25758 22.0071 9.62121 22.2116 9.93182C22.42 10.2424 22.7173 10.483 23.1037 10.6534C23.4901 10.8239 23.9484 10.9091 24.4787 10.9091ZM24.4787 5.38636C24.8954 5.38636 25.2647 5.30303 25.5866 5.13636C25.9124 4.9697 26.1681 4.73674 26.3537 4.4375C26.5393 4.13826 26.634 3.78788 26.6378 3.38636C26.634 2.99242 26.5412 2.64962 26.3594 2.35795C26.1776 2.0625 25.9257 1.83523 25.6037 1.67614C25.2817 1.51326 24.9067 1.43182 24.4787 1.43182C24.0431 1.43182 23.6624 1.51326 23.3366 1.67614C23.0109 1.83523 22.759 2.0625 22.581 2.35795C22.4029 2.64962 22.3158 2.99242 22.3196 3.38636C22.3158 3.78788 22.4048 4.13826 22.5866 4.4375C22.7723 4.73674 23.0279 4.9697 23.3537 5.13636C23.6795 5.30303 24.0545 5.38636 24.4787 5.38636ZM31.2514 12.0909C30.9711 12.0909 30.7306 11.9905 30.5298 11.7898C30.3291 11.589 30.2287 11.3485 30.2287 11.0682C30.2287 10.7879 30.3291 10.5473 30.5298 10.3466C30.7306 10.1458 30.9711 10.0455 31.2514 10.0455C31.5317 10.0455 31.7723 10.1458 31.973 10.3466C32.1738 10.5473 32.2741 10.7879 32.2741 11.0682C32.2741 11.2538 32.2268 11.4242 32.1321 11.5795C32.0412 11.7348 31.9181 11.8598 31.7628 11.9545C31.6113 12.0455 31.4408 12.0909 31.2514 12.0909ZM38.0469 12.1591C37.1908 12.1591 36.4616 11.9261 35.8594 11.4602C35.2571 10.9905 34.7969 10.3106 34.4787 9.42045C34.1605 8.52652 34.0014 7.44697 34.0014 6.18182C34.0014 4.92424 34.1605 3.85038 34.4787 2.96023C34.8007 2.06629 35.2628 1.38447 35.8651 0.914772C36.4711 0.441287 37.1984 0.204545 38.0469 0.204545C38.8954 0.204545 39.6207 0.441287 40.223 0.914772C40.8291 1.38447 41.2912 2.06629 41.6094 2.96023C41.9313 3.85038 42.0923 4.92424 42.0923 6.18182C42.0923 7.44697 41.9332 8.52652 41.6151 9.42045C41.2969 10.3106 40.8366 10.9905 40.2344 11.4602C39.6321 11.9261 38.9029 12.1591 38.0469 12.1591ZM38.0469 10.9091C38.8954 10.9091 39.5545 10.5 40.0241 9.68182C40.4938 8.86364 40.7287 7.69697 40.7287 6.18182C40.7287 5.17424 40.6207 4.31629 40.4048 3.60795C40.1927 2.89962 39.8859 2.35985 39.4844 1.98864C39.0866 1.61742 38.6075 1.43182 38.0469 1.43182C37.206 1.43182 36.5488 1.84659 36.0753 2.67614C35.6018 3.50189 35.3651 4.67045 35.3651 6.18182C35.3651 7.18939 35.4711 8.04545 35.6832 8.75C35.8954 9.45455 36.2003 9.99053 36.598 10.358C36.9995 10.7254 37.4825 10.9091 38.0469 10.9091ZM48.1151 12.1591C47.6378 12.1515 47.1605 12.0606 46.6832 11.8864C46.206 11.7121 45.7704 11.4186 45.3764 11.0057C44.9825 10.589 44.6662 10.0265 44.4276 9.31818C44.1889 8.60606 44.0696 7.71212 44.0696 6.63636C44.0696 5.60606 44.1662 4.69318 44.3594 3.89773C44.5526 3.09848 44.8329 2.42614 45.2003 1.88068C45.5677 1.33144 46.0109 0.914772 46.5298 0.630681C47.0526 0.34659 47.6416 0.204545 48.2969 0.204545C48.9484 0.204545 49.5279 0.335227 50.0355 0.596591C50.5469 0.854166 50.9635 1.21401 51.2855 1.67614C51.6075 2.13826 51.8158 2.67045 51.9105 3.27273H50.5241C50.3954 2.75 50.1454 2.31629 49.7741 1.97159C49.4029 1.62689 48.9105 1.45455 48.2969 1.45455C47.3954 1.45455 46.6851 1.84659 46.1662 2.63068C45.651 3.41477 45.3916 4.51515 45.3878 5.93182H45.4787C45.6908 5.60985 45.9427 5.33523 46.2344 5.10795C46.5298 4.87689 46.8556 4.69886 47.2116 4.57386C47.5677 4.44886 47.9446 4.38636 48.3423 4.38636C49.009 4.38636 49.6188 4.55303 50.1719 4.88636C50.7249 5.21591 51.1681 5.67235 51.5014 6.25568C51.8348 6.83523 52.0014 7.5 52.0014 8.25C52.0014 8.9697 51.8404 9.62879 51.5185 10.2273C51.1965 10.822 50.7438 11.2955 50.1605 11.6477C49.581 11.9962 48.8991 12.1667 48.1151 12.1591ZM48.1151 10.9091C48.5923 10.9091 49.0204 10.7898 49.3991 10.5511C49.7817 10.3125 50.0829 9.99242 50.3026 9.59091C50.526 9.18939 50.6378 8.74242 50.6378 8.25C50.6378 7.76894 50.5298 7.33144 50.3139 6.9375C50.1018 6.53977 49.8082 6.22348 49.4332 5.98864C49.062 5.75379 48.6378 5.63636 48.1605 5.63636C47.8007 5.63636 47.4654 5.70833 47.1548 5.85227C46.8442 5.99242 46.5715 6.18561 46.3366 6.43182C46.1056 6.67803 45.9238 6.96023 45.7912 7.27841C45.6586 7.5928 45.5923 7.92424 45.5923 8.27273C45.5923 8.73485 45.7003 9.16667 45.9162 9.56818C46.1359 9.9697 46.4351 10.2936 46.8139 10.5398C47.1965 10.786 47.6302 10.9091 48.1151 10.9091ZM54.5994 12L59.804 1.70455V1.61364H53.804V0.363636H61.2585V1.68182L56.0767 12H54.5994ZM62.3764 12.0909C62.0961 12.0909 61.8556 11.9905 61.6548 11.7898C61.4541 11.589 61.3537 11.3485 61.3537 11.0682C61.3537 10.7879 61.4541 10.5473 61.6548 10.3466C61.8556 10.1458 62.0961 10.0455 62.3764 10.0455C62.6567 10.0455 62.8973 10.1458 63.098 10.3466C63.2988 10.5473 63.3991 10.7879 63.3991 11.0682C63.3991 11.2538 63.3518 11.4242 63.2571 11.5795C63.1662 11.7348 63.0431 11.8598 62.8878 11.9545C62.7363 12.0455 62.5658 12.0909 62.3764 12.0909ZM65.9119 12L71.1165 1.70455V1.61364H65.1165V0.363636H72.571V1.68182L67.3892 12H65.9119ZM78.2372 0.204545C78.7145 0.208333 79.1918 0.299242 79.669 0.477272C80.1463 0.655303 80.5819 0.950757 80.9759 1.36364C81.3698 1.77273 81.6861 2.33144 81.9247 3.03977C82.1634 3.74811 82.2827 4.63636 82.2827 5.70455C82.2827 6.73864 82.1842 7.6572 81.9872 8.46023C81.794 9.25947 81.5137 9.93371 81.1463 10.483C80.7827 11.0322 80.3395 11.4489 79.8168 11.733C79.2978 12.017 78.7107 12.1591 78.0554 12.1591C77.4039 12.1591 76.8224 12.0303 76.3111 11.7727C75.8035 11.5114 75.3868 11.1496 75.0611 10.6875C74.7391 10.2216 74.5327 9.68182 74.4418 9.06818H75.8281C75.9531 9.60227 76.2012 10.0436 76.5724 10.392C76.9474 10.7367 77.4418 10.9091 78.0554 10.9091C78.9531 10.9091 79.6615 10.517 80.1804 9.73295C80.7031 8.94886 80.9645 7.84091 80.9645 6.40909H80.8736C80.6615 6.72727 80.4096 7.00189 80.1179 7.23295C79.8262 7.46402 79.5024 7.64205 79.1463 7.76705C78.7902 7.89205 78.4115 7.95455 78.0099 7.95455C77.3433 7.95455 76.7315 7.78977 76.1747 7.46023C75.6217 7.12689 75.1785 6.67045 74.8452 6.09091C74.5156 5.50758 74.3509 4.84091 74.3509 4.09091C74.3509 3.37879 74.5099 2.72727 74.8281 2.13636C75.1501 1.54167 75.6009 1.06818 76.1804 0.715909C76.7637 0.363636 77.4493 0.193182 78.2372 0.204545ZM78.2372 1.45455C77.7599 1.45455 77.33 1.57386 76.9474 1.8125C76.5687 2.04735 76.2675 2.36553 76.044 2.76705C75.8243 3.16477 75.7145 3.60606 75.7145 4.09091C75.7145 4.57576 75.8205 5.01705 76.0327 5.41477C76.2486 5.80871 76.5421 6.12311 76.9134 6.35795C77.2884 6.58902 77.7145 6.70455 78.1918 6.70455C78.5516 6.70455 78.8868 6.63447 79.1974 6.49432C79.508 6.35038 79.7789 6.1553 80.0099 5.90909C80.2448 5.65909 80.4285 5.37689 80.5611 5.0625C80.6937 4.74432 80.7599 4.41288 80.7599 4.06818C80.7599 3.61364 80.6501 3.1875 80.4304 2.78977C80.2145 2.39205 79.9152 2.07008 79.5327 1.82386C79.1539 1.57765 78.7221 1.45455 78.2372 1.45455ZM88.2216 0.204545C88.6989 0.208333 89.1761 0.299242 89.6534 0.477272C90.1307 0.655303 90.5663 0.950757 90.9602 1.36364C91.3542 1.77273 91.6705 2.33144 91.9091 3.03977C92.1477 3.74811 92.267 4.63636 92.267 5.70455C92.267 6.73864 92.1686 7.6572 91.9716 8.46023C91.7784 9.25947 91.4981 9.93371 91.1307 10.483C90.767 11.0322 90.3239 11.4489 89.8011 11.733C89.2822 12.017 88.6951 12.1591 88.0398 12.1591C87.3883 12.1591 86.8068 12.0303 86.2955 11.7727C85.7879 11.5114 85.3712 11.1496 85.0455 10.6875C84.7235 10.2216 84.517 9.68182 84.4261 9.06818H85.8125C85.9375 9.60227 86.1856 10.0436 86.5568 10.392C86.9318 10.7367 87.4261 10.9091 88.0398 10.9091C88.9375 10.9091 89.6458 10.517 90.1648 9.73295C90.6875 8.94886 90.9489 7.84091 90.9489 6.40909H90.858C90.6458 6.72727 90.3939 7.00189 90.1023 7.23295C89.8106 7.46402 89.4867 7.64205 89.1307 7.76705C88.7746 7.89205 88.3958 7.95455 87.9943 7.95455C87.3277 7.95455 86.7159 7.78977 86.1591 7.46023C85.6061 7.12689 85.1629 6.67045 84.8295 6.09091C84.5 5.50758 84.3352 4.84091 84.3352 4.09091C84.3352 3.37879 84.4943 2.72727 84.8125 2.13636C85.1345 1.54167 85.5852 1.06818 86.1648 0.715909C86.7481 0.363636 87.4337 0.193182 88.2216 0.204545ZM88.2216 1.45455C87.7443 1.45455 87.3144 1.57386 86.9318 1.8125C86.553 2.04735 86.2519 2.36553 86.0284 2.76705C85.8087 3.16477 85.6989 3.60606 85.6989 4.09091C85.6989 4.57576 85.8049 5.01705 86.017 5.41477C86.233 5.80871 86.5265 6.12311 86.8977 6.35795C87.2727 6.58902 87.6989 6.70455 88.1761 6.70455C88.536 6.70455 88.8712 6.63447 89.1818 6.49432C89.4924 6.35038 89.7633 6.1553 89.9943 5.90909C90.2292 5.65909 90.4129 5.37689 90.5455 5.0625C90.678 4.74432 90.7443 4.41288 90.7443 4.06818C90.7443 3.61364 90.6345 3.1875 90.4148 2.78977C90.1989 2.39205 89.8996 2.07008 89.517 1.82386C89.1383 1.57765 88.7064 1.45455 88.2216 1.45455ZM95.0952 12.0909C94.8149 12.0909 94.5743 11.9905 94.3736 11.7898C94.1728 11.589 94.0724 11.3485 94.0724 11.0682C94.0724 10.7879 94.1728 10.5473 94.3736 10.3466C94.5743 10.1458 94.8149 10.0455 95.0952 10.0455C95.3755 10.0455 95.616 10.1458 95.8168 10.3466C96.0175 10.5473 96.1179 10.7879 96.1179 11.0682C96.1179 11.2538 96.0705 11.4242 95.9759 11.5795C95.8849 11.7348 95.7618 11.8598 95.6065 11.9545C95.455 12.0455 95.2846 12.0909 95.0952 12.0909ZM101.903 12.1591C101.237 12.1591 100.636 12.0265 100.102 11.7614C99.5682 11.4962 99.1402 11.1326 98.8182 10.6705C98.4962 10.2083 98.3201 9.68182 98.2898 9.09091H99.6534C99.7064 9.61742 99.9451 10.053 100.369 10.3977C100.797 10.7386 101.309 10.9091 101.903 10.9091C102.381 10.9091 102.805 10.7973 103.176 10.5739C103.551 10.3504 103.845 10.0436 104.057 9.65341C104.273 9.25947 104.381 8.81439 104.381 8.31818C104.381 7.81061 104.269 7.35795 104.045 6.96023C103.826 6.55871 103.523 6.24242 103.136 6.01136C102.75 5.7803 102.309 5.66288 101.812 5.65909C101.456 5.6553 101.091 5.71023 100.716 5.82386C100.341 5.93371 100.032 6.07576 99.7898 6.25L98.4716 6.09091L99.1761 0.363636H105.222V1.61364H100.358L99.9489 5.04545H100.017C100.256 4.85606 100.555 4.69886 100.915 4.57386C101.275 4.44886 101.65 4.38636 102.04 4.38636C102.752 4.38636 103.386 4.55682 103.943 4.89773C104.504 5.23485 104.943 5.69697 105.261 6.28409C105.583 6.87121 105.744 7.54167 105.744 8.29545C105.744 9.03788 105.578 9.70076 105.244 10.2841C104.915 10.8636 104.46 11.322 103.881 11.6591C103.301 11.9924 102.642 12.1591 101.903 12.1591ZM107.729 9.61364V8.45455L112.842 0.363636H113.683V2.15909H113.115L109.251 8.27273V8.36364H116.138V9.61364H107.729ZM113.206 12V9.26136V8.72159V0.363636H114.547V12H113.206ZM118.72 12.0909C118.44 12.0909 118.199 11.9905 117.999 11.7898C117.798 11.589 117.697 11.3485 117.697 11.0682C117.697 10.7879 117.798 10.5473 117.999 10.3466C118.199 10.1458 118.44 10.0455 118.72 10.0455C119 10.0455 119.241 10.1458 119.442 10.3466C119.643 10.5473 119.743 10.7879 119.743 11.0682C119.743 11.2538 119.696 11.4242 119.601 11.5795C119.51 11.7348 119.387 11.8598 119.232 11.9545C119.08 12.0455 118.91 12.0909 118.72 12.0909ZM125.494 12.1591C124.714 12.1591 124.025 12.0208 123.426 11.7443C122.831 11.464 122.367 11.0795 122.034 10.5909C121.701 10.0985 121.536 9.53788 121.54 8.90909C121.536 8.41667 121.633 7.96212 121.83 7.54545C122.027 7.125 122.295 6.77462 122.636 6.49432C122.981 6.21023 123.366 6.0303 123.79 5.95455V5.88636C123.233 5.74242 122.79 5.42992 122.46 4.94886C122.131 4.46401 121.968 3.91288 121.972 3.29545C121.968 2.70455 122.117 2.17614 122.42 1.71023C122.723 1.24432 123.14 0.876893 123.67 0.607954C124.205 0.339015 124.813 0.204545 125.494 0.204545C126.169 0.204545 126.771 0.339015 127.301 0.607954C127.831 0.876893 128.248 1.24432 128.551 1.71023C128.858 2.17614 129.013 2.70455 129.017 3.29545C129.013 3.91288 128.845 4.46401 128.511 4.94886C128.182 5.42992 127.744 5.74242 127.199 5.88636V5.95455C127.619 6.0303 127.998 6.21023 128.335 6.49432C128.672 6.77462 128.941 7.125 129.142 7.54545C129.343 7.96212 129.445 8.41667 129.449 8.90909C129.445 9.53788 129.275 10.0985 128.938 10.5909C128.604 11.0795 128.14 11.464 127.545 11.7443C126.955 12.0208 126.271 12.1591 125.494 12.1591ZM125.494 10.9091C126.021 10.9091 126.475 10.8239 126.858 10.6534C127.241 10.483 127.536 10.2424 127.744 9.93182C127.953 9.62121 128.059 9.25758 128.062 8.84091C128.059 8.40152 127.945 8.01326 127.722 7.67614C127.498 7.33902 127.193 7.07386 126.807 6.88068C126.424 6.6875 125.987 6.59091 125.494 6.59091C124.998 6.59091 124.555 6.6875 124.165 6.88068C123.778 7.07386 123.473 7.33902 123.25 7.67614C123.03 8.01326 122.922 8.40152 122.926 8.84091C122.922 9.25758 123.023 9.62121 123.227 9.93182C123.436 10.2424 123.733 10.483 124.119 10.6534C124.506 10.8239 124.964 10.9091 125.494 10.9091ZM125.494 5.38636C125.911 5.38636 126.28 5.30303 126.602 5.13636C126.928 4.9697 127.184 4.73674 127.369 4.4375C127.555 4.13826 127.65 3.78788 127.653 3.38636C127.65 2.99242 127.557 2.64962 127.375 2.35795C127.193 2.0625 126.941 1.83523 126.619 1.67614C126.297 1.51326 125.922 1.43182 125.494 1.43182C125.059 1.43182 124.678 1.51326 124.352 1.67614C124.027 1.83523 123.775 2.0625 123.597 2.35795C123.419 2.64962 123.331 2.99242 123.335 3.38636C123.331 3.78788 123.42 4.13826 123.602 4.4375C123.788 4.73674 124.044 4.9697 124.369 5.13636C124.695 5.30303 125.07 5.38636 125.494 5.38636ZM131.354 9.61364V8.45455L136.467 0.363636H137.308V2.15909H136.74L132.876 8.27273V8.36364H139.763V9.61364H131.354ZM136.831 12V9.26136V8.72159V0.363636H138.172V12H136.831Z" fill="#000000"/>
</svg>
